<?xml version="1.0" encoding="UTF-8"?>
<svg width="1127px" height="285px" viewBox="0 0 1127 285" version="1.1" xmlns="http://www.w3.org/2000/svg" xmlns:xlink="http://www.w3.org/1999/xlink">
    <!-- Generator: Sketch 55.2 (78181) - https://sketchapp.com -->
    <title>Combined Shape</title>
    <desc>Created with Sketch.</desc>
    <g id="Page-1" stroke="none" stroke-width="1" fill="none" fill-rule="evenodd">
        <path d="M689.975,140.783 L774.494,140.783 L774.494,67.828 L777.494,67.828 L777.494,140.783 L858.804,140.783 L858.804,67.792 L861.804,67.792 L861.804,140.783 L942.963,140.783 L942.963,67.828 L945.963,67.828 L945.963,140.783 L1027.272,140.783 L1027.272,67.828 L1030.272,67.828 L1030.272,140.783 L1126.774,140.783 L1126.774,143.783 L1030.272,143.783 L1030.272,216.739 L1027.272,216.739 L1027.272,143.783 L945.963,143.783 L945.963,216.739 L942.963,216.739 L942.963,143.783 L861.804,143.783 L861.804,216.703 L858.804,216.703 L858.804,143.783 L777.494,143.783 L777.494,216.739 L774.494,216.739 L774.494,143.783 L689.975,143.783 L689.975,216.703 L686.975,216.703 L686.975,143.783 L607.042,143.783 L607.042,216.703 L604.042,216.703 L604.042,143.783 L564.888,143.783 L564.888,284.568 L561.888,284.568 L561.888,143.783 L522.885,143.783 L522.885,216.703 L519.885,216.703 L519.885,143.783 L438.422,143.783 L438.422,216.739 L435.422,216.739 L435.422,143.783 L354.113,143.783 L354.113,216.739 L351.113,216.739 L351.113,143.783 L269.954,143.783 L269.954,216.703 L266.954,216.703 L266.954,143.783 L185.644,143.783 L185.644,216.739 L182.644,216.739 L182.644,143.783 L98.125,143.783 L98.125,216.703 L95.125,216.703 L95.125,143.783 L0,143.783 L0,140.783 L95.125,140.783 L95.125,67.792 L98.125,67.792 L98.125,140.783 L182.644,140.783 L182.644,67.828 L185.644,67.828 L185.644,140.783 L266.954,140.783 L266.954,67.792 L269.954,67.792 L269.954,140.783 L351.113,140.783 L351.113,67.828 L354.113,67.828 L354.113,140.783 L435.422,140.783 L435.422,67.828 L438.422,67.828 L438.422,140.783 L519.885,140.783 L519.885,67.792 L522.885,67.792 L522.885,140.783 L561.888,140.783 L561.888,0 L564.888,0 L564.888,140.783 L604.042,140.783 L604.042,67.792 L607.042,67.792 L607.042,140.783 L686.975,140.783 L686.975,67.792 L689.975,67.792 L689.975,140.783 Z" id="Combined-Shape" fill="#000000" fill-rule="nonzero"></path>
    </g>
</svg>