<?xml version="1.0" encoding="UTF-8"?>
<svg width="285px" height="1127px" viewBox="0 0 285 1127" version="1.1" xmlns="http://www.w3.org/2000/svg" xmlns:xlink="http://www.w3.org/1999/xlink">
    <!-- Generator: Sketch 55.2 (78181) - https://sketchapp.com -->
    <title>antenna-verical</title>
    <desc>Created with Sketch.</desc>
    <g id="Page-1" stroke="none" stroke-width="1" fill="none" fill-rule="evenodd">
        <g id="antenna-verical" transform="translate(142.500000, 563.500000) rotate(-90.000000) translate(-142.500000, -563.500000) translate(-421.000000, 421.000000)" fill="#000000" fill-rule="nonzero">
            <polygon id="Combined-Shape" points="689.975 140.783 774.494 140.783 774.494 67.828 777.494 67.828 777.494 140.783 858.804 140.783 858.804 67.792 861.804 67.792 861.804 140.783 942.963 140.783 942.963 67.828 945.963 67.828 945.963 140.783 1027.272 140.783 1027.272 67.828 1030.272 67.828 1030.272 140.783 1126.774 140.783 1126.774 143.783 1030.272 143.783 1030.272 216.739 1027.272 216.739 1027.272 143.783 945.963 143.783 945.963 216.739 942.963 216.739 942.963 143.783 861.804 143.783 861.804 216.703 858.804 216.703 858.804 143.783 777.494 143.783 777.494 216.739 774.494 216.739 774.494 143.783 689.975 143.783 689.975 216.703 686.975 216.703 686.975 143.783 607.042 143.783 607.042 216.703 604.042 216.703 604.042 143.783 564.888 143.783 564.888 284.568 561.888 284.568 561.888 143.783 522.885 143.783 522.885 216.703 519.885 216.703 519.885 143.783 438.422 143.783 438.422 216.739 435.422 216.739 435.422 143.783 354.113 143.783 354.113 216.739 351.113 216.739 351.113 143.783 269.954 143.783 269.954 216.703 266.954 216.703 266.954 143.783 185.644 143.783 185.644 216.739 182.644 216.739 182.644 143.783 98.125 143.783 98.125 216.703 95.125 216.703 95.125 143.783 0 143.783 0 140.783 95.125 140.783 95.125 67.792 98.125 67.792 98.125 140.783 182.644 140.783 182.644 67.828 185.644 67.828 185.644 140.783 266.954 140.783 266.954 67.792 269.954 67.792 269.954 140.783 351.113 140.783 351.113 67.828 354.113 67.828 354.113 140.783 435.422 140.783 435.422 67.828 438.422 67.828 438.422 140.783 519.885 140.783 519.885 67.792 522.885 67.792 522.885 140.783 561.888 140.783 561.888 0 564.888 0 564.888 140.783 604.042 140.783 604.042 67.792 607.042 67.792 607.042 140.783 686.975 140.783 686.975 67.792 689.975 67.792"></polygon>
        </g>
    </g>
</svg>