<?xml version="1.0" encoding="UTF-8"?>
<svg width="1644px" height="212px" viewBox="0 0 1644 212" version="1.1" xmlns="http://www.w3.org/2000/svg" xmlns:xlink="http://www.w3.org/1999/xlink">
    <title>glitch-horizontal-f</title>
    <g id="Page-1" stroke="none" stroke-width="1" fill="none" fill-rule="evenodd">
        <g id="glitch-horizontal-f" fill-rule="nonzero">
            <rect id="Rectangle_187" fill="#6AC32D" x="466.66" y="189.741" width="550.847" height="22"></rect>
            <polygon id="Path_312" fill="#EAE9E8" points="1223.906 189.825 1458.386 189.825 1458.386 201.243 1223.906 201.243"></polygon>
            <rect id="Rectangle_189" fill="#FFBE07" x="1161.181" y="189.825" width="234.48" height="11.418"></rect>
            <polygon id="Path_311" fill="#6CD5D5" points="1388.764 189.825 1623.244 189.825 1623.244 201.243 1388.764 201.243"></polygon>
            <polygon id="Path_310" fill="#D672AF" points="668.906 189.825 903.386 189.825 903.386 201.243 668.906 201.243"></polygon>
            <rect id="Rectangle_192" fill="#E33D49" x="901.087" y="189.825" width="234.48" height="11.418"></rect>
            <rect id="Rectangle_193" fill="#193EB7" x="1128.67" y="189.825" width="234.48" height="11.418"></rect>
            <rect id="Rectangle_194" fill="#6AC32D" x="1072.397" y="42" width="550.847" height="116"></rect>
            <rect id="Rectangle_195" fill="#6100DE" x="0" y="0" width="234.48" height="99"></rect>
            <rect id="Rectangle_196" fill="#FFBE07" x="232" y="0" width="234.48" height="99"></rect>
            <polygon id="Path_309" fill="#6CD5D5" points="460 0 694.48 0 694.48 99 460 99"></polygon>
            <polygon id="Path_308" fill="#D672AF" points="949 0 1183.48 0 1183.48 99 949 99"></polygon>
            <rect id="Rectangle_199" fill="#E33D49" x="1181" y="0" width="234.48" height="99"></rect>
            <rect id="Rectangle_200" fill="#193EB7" x="1409" y="0" width="234.48" height="99"></rect>
        </g>
    </g>
</svg>