<?xml version="1.0" encoding="UTF-8"?>
<svg width="1530px" height="212px" viewBox="0 0 1530 212" version="1.1" xmlns="http://www.w3.org/2000/svg" xmlns:xlink="http://www.w3.org/1999/xlink">
    <title>glitch-horizontal-b</title>
    <g id="Page-1" stroke="none" stroke-width="1" fill="none" fill-rule="evenodd">
        <g id="glitch-horizontal-b" fill-rule="nonzero">
            <rect id="Rectangle_187" fill="#6AC32D" x="941.575" y="189.741" width="550.847" height="22"></rect>
            <polygon id="Path_312" fill="#EAE9E8" points="794.008 189.825 1028.488 189.825 1028.488 201.243 794.008 201.243"></polygon>
            <rect id="Rectangle_189" fill="#FFBE07" x="1026.189" y="189.825" width="234.48" height="11.418"></rect>
            <polygon id="Path_311" fill="#6CD5D5" points="1253.772 189.825 1488.252 189.825 1488.252 201.243 1253.772 201.243"></polygon>
            <polygon id="Path_310" fill="#D672AF" points="561.827 189.825 796.307 189.825 796.307 201.243 561.827 201.243"></polygon>
            <rect id="Rectangle_192" fill="#E33D49" x="794.008" y="189.825" width="234.48" height="11.418"></rect>
            <rect id="Rectangle_193" fill="#193EB7" x="1021.591" y="189.825" width="234.48" height="11.418"></rect>
            <rect id="Rectangle_194" fill="#E33D49" x="94" y="8" width="550.847" height="150"></rect>
            <rect id="Rectangle_195" fill="#6100DE" x="0" y="0" width="234.48" height="99"></rect>
            <rect id="Rectangle_196" fill="#FFBE07" x="232" y="0" width="234.48" height="99"></rect>
            <polygon id="Path_309" fill="#6CD5D5" points="460 0 694.48 0 694.48 99 460 99"></polygon>
            <polygon id="Path_308" fill="#D672AF" points="835 0 1069.48 0 1069.48 99 835 99"></polygon>
            <rect id="Rectangle_199" fill="#E33D49" x="1067" y="0" width="234.48" height="99"></rect>
            <rect id="Rectangle_200" fill="#193EB7" x="1295" y="0" width="234.48" height="99"></rect>
        </g>
    </g>
</svg>