<?xml version="1.0" encoding="UTF-8"?>
<svg width="214px" height="1890px" viewBox="0 0 214 1890" version="1.1" xmlns="http://www.w3.org/2000/svg" xmlns:xlink="http://www.w3.org/1999/xlink">
    <!-- Generator: Sketch 55.2 (78181) - https://sketchapp.com -->
    <title>glitch-vertical</title>
    <desc>Created with Sketch.</desc>
    <g id="Page-1" stroke="none" stroke-width="1" fill="none" fill-rule="evenodd">
        <g id="glitch-vertical" transform="translate(107.000000, 945.500000) rotate(-270.000000) translate(-107.000000, -945.500000) translate(-838.000000, 839.000000)" fill-rule="nonzero">
            <rect id="Rectangle_187" fill="#6AC32D" x="147.567" y="190.741" width="550.847" height="22"></rect>
            <polygon id="Path_312" fill="#EAE9E8" points="0 190.825 234.48 190.825 234.48 202.243 0 202.243"></polygon>
            <rect id="Rectangle_189" fill="#FFBE07" x="232.181" y="190.825" width="234.48" height="11.418"></rect>
            <polygon id="Path_311" fill="#6CD5D5" points="459.764 190.825 694.244 190.825 694.244 202.243 459.764 202.243"></polygon>
            <polygon id="Path_310" fill="#D672AF" points="921.827 190.825 1156.307 190.825 1156.307 202.243 921.827 202.243"></polygon>
            <rect id="Rectangle_192" fill="#E33D49" x="1154.008" y="190.825" width="234.48" height="11.418"></rect>
            <rect id="Rectangle_193" fill="#193EB7" x="1381.591" y="190.825" width="234.48" height="11.418"></rect>
            <rect id="Rectangle_194" fill="#6AC32D" x="595" y="0" width="550.847" height="159"></rect>
            <rect id="Rectangle_195" fill="#6100DE" x="273" y="0" width="234.48" height="99.774"></rect>
            <rect id="Rectangle_196" fill="#FFBE07" x="506" y="0" width="234.48" height="99.774"></rect>
            <polygon id="Path_309" fill="#6CD5D5" points="733 0 967.48 0 967.48 99.774 733 99.774"></polygon>
            <polygon id="Path_308" fill="#D672AF" points="1195 0 1429.48 0 1429.48 99.774 1195 99.774"></polygon>
            <rect id="Rectangle_199" fill="#E33D49" x="1427" y="0" width="234.48" height="99.774"></rect>
            <rect id="Rectangle_200" fill="#193EB7" x="1655" y="0" width="234.48" height="99.774"></rect>
        </g>
    </g>
</svg>