<?xml version="1.0" encoding="UTF-8"?>
<svg width="1783px" height="212px" viewBox="0 0 1783 212" version="1.1" xmlns="http://www.w3.org/2000/svg" xmlns:xlink="http://www.w3.org/1999/xlink">
    <title>glitch-horizontal-e</title>
    <g id="Page-1" stroke="none" stroke-width="1" fill="none" fill-rule="evenodd">
        <g id="glitch-horizontal-e" fill-rule="nonzero">
            <rect id="Rectangle_187" fill="#FFBE07" x="1232" y="190" width="550.847" height="22"></rect>
            <polygon id="Path_311" fill="#6CD5D5" points="1363 190 1597.48 190 1597.48 201 1363 201"></polygon>
            <polygon id="Path_310" fill="#D672AF" points="669 190 903.48 190 903.48 201 669 201"></polygon>
            <rect id="Rectangle_192" fill="#E33D49" x="901" y="190" width="234.48" height="11"></rect>
            <rect id="Rectangle_193" fill="#193EB7" x="1129" y="190" width="234.48" height="11"></rect>
            <rect id="Rectangle_194" fill="#6100DE" x="625.6635" y="37" width="550.847" height="121"></rect>
            <rect id="Rectangle_195" fill="#6100DE" x="0" y="0" width="234.48" height="99"></rect>
            <rect id="Rectangle_196" fill="#FFBE07" x="232" y="0" width="234.48" height="99"></rect>
            <polygon id="Path_309" fill="#6CD5D5" points="460 0 694.48 0 694.48 99 460 99"></polygon>
            <polygon id="Path_308" fill="#D672AF" points="604 0 838.48 0 838.48 99 604 99"></polygon>
            <rect id="Rectangle_199" fill="#E33D49" x="836" y="0" width="234.48" height="99"></rect>
            <rect id="Rectangle_200" fill="#193EB7" x="1064" y="0" width="234.48" height="99"></rect>
        </g>
    </g>
</svg>