<?xml version="1.0" encoding="UTF-8"?>
<svg width="507px" height="507px" viewBox="0 0 507 507" version="1.1" xmlns="http://www.w3.org/2000/svg" xmlns:xlink="http://www.w3.org/1999/xlink">
    <!-- Generator: Sketch 55.2 (78181) - https://sketchapp.com -->
    <title>Combined-Shape</title>
    <desc>Created with Sketch.</desc>
    <g id="Page-1" stroke="none" stroke-width="1" fill="none" fill-rule="evenodd">
        <path d="M85.329,168.659 L168.659,168.659 L168.659,85.329 L85.329,85.329 L85.329,168.659 Z M84.329,168.659 L84.329,85.329 L1,85.329 L1,168.659 L84.329,168.659 Z M85.329,1 L85.329,84.329 L168.659,84.329 L168.659,1 L85.329,1 Z M84.329,1 L1,1 L1,84.329 L84.329,84.329 L84.329,1 Z M85.329,252.989 L168.659,252.989 L168.659,169.659 L85.329,169.659 L85.329,252.989 Z M84.329,252.989 L84.329,169.659 L1,169.659 L1,252.989 L84.329,252.989 Z M85.329,337.318 L168.659,337.318 L168.659,253.989 L85.329,253.989 L85.329,337.318 Z M84.329,337.318 L84.329,253.989 L1,253.989 L1,337.318 L84.329,337.318 Z M85.329,421.648 L168.659,421.648 L168.659,338.318 L85.329,338.318 L85.329,421.648 Z M84.329,421.648 L84.329,338.318 L1,338.318 L1,421.648 L84.329,421.648 Z M85.329,505.978 L168.659,505.978 L168.659,422.648 L85.329,422.648 L85.329,505.978 Z M84.329,505.978 L84.329,422.648 L1,422.648 L1,505.978 L84.329,505.978 Z M169.659,168.659 L252.989,168.659 L252.989,85.329 L169.659,85.329 L169.659,168.659 Z M169.659,1 L169.659,84.329 L252.989,84.329 L252.989,1 L169.659,1 Z M169.659,252.989 L252.989,252.989 L252.989,169.659 L169.659,169.659 L169.659,252.989 Z M169.659,337.318 L252.989,337.318 L252.989,253.989 L169.659,253.989 L169.659,337.318 Z M169.659,421.648 L252.989,421.648 L252.989,338.318 L169.659,338.318 L169.659,421.648 Z M169.659,505.978 L252.989,505.978 L252.989,422.648 L169.659,422.648 L169.659,505.978 Z M253.989,168.659 L337.318,168.659 L337.318,85.329 L253.989,85.329 L253.989,168.659 Z M253.989,1 L253.989,84.329 L337.318,84.329 L337.318,1 L253.989,1 Z M253.989,252.989 L337.318,252.989 L337.318,169.659 L253.989,169.659 L253.989,252.989 Z M253.989,337.318 L337.318,337.318 L337.318,253.989 L253.989,253.989 L253.989,337.318 Z M253.989,421.648 L337.318,421.648 L337.318,338.318 L253.989,338.318 L253.989,421.648 Z M253.989,505.978 L337.318,505.978 L337.318,422.648 L253.989,422.648 L253.989,505.978 Z M338.318,168.659 L421.648,168.659 L421.648,85.329 L338.318,85.329 L338.318,168.659 Z M338.318,1 L338.318,84.329 L421.648,84.329 L421.648,1 L338.318,1 Z M338.318,252.989 L421.648,252.989 L421.648,169.659 L338.318,169.659 L338.318,252.989 Z M338.318,337.318 L421.648,337.318 L421.648,253.989 L338.318,253.989 L338.318,337.318 Z M338.318,421.648 L421.648,421.648 L421.648,338.318 L338.318,338.318 L338.318,421.648 Z M338.318,505.978 L421.648,505.978 L421.648,422.648 L338.318,422.648 L338.318,505.978 Z M422.648,168.659 L505.978,168.659 L505.978,85.329 L422.648,85.329 L422.648,168.659 Z M422.648,1 L422.648,84.329 L505.978,84.329 L505.978,1 L422.648,1 Z M422.648,252.989 L505.978,252.989 L505.978,169.659 L422.648,169.659 L422.648,252.989 Z M422.648,337.318 L505.978,337.318 L505.978,253.989 L422.648,253.989 L422.648,337.318 Z M422.648,421.648 L505.978,421.648 L505.978,338.318 L422.648,338.318 L422.648,421.648 Z M422.648,505.978 L505.978,505.978 L505.978,422.648 L422.648,422.648 L422.648,505.978 Z M0,0 L506.978,0 L506.978,506.978 L0,506.978 L0,0 Z" id="Combined-Shape" fill="#343434" fill-rule="nonzero"></path>
    </g>
</svg>