<?xml version="1.0" encoding="UTF-8"?>
<svg width="301px" height="191px" viewBox="0 0 301 191" version="1.1" xmlns="http://www.w3.org/2000/svg" xmlns:xlink="http://www.w3.org/1999/xlink">
    <!-- Generator: Sketch 55.2 (78181) - https://sketchapp.com -->
    <title>grill</title>
    <desc>Created with Sketch.</desc>
    <g id="Page-1" stroke="none" stroke-width="1" fill="none" fill-rule="evenodd">
        <g id="grill-horizontal-light" fill="#E5E5E5" fill-rule="nonzero">
            <path d="M135.173,96.803 L150.138,96.803 L150.138,190.216 L135.173,190.216 L135.173,96.803 Z M165.211,96.803 L180.176,96.803 L180.176,190.216 L165.211,190.216 L165.211,96.803 Z M15.019,96.803 L29.984,96.803 L29.984,190.216 L15.019,190.216 L15.019,96.803 Z M75.096,96.803 L90.061,96.803 L90.061,190.216 L75.096,190.216 L75.096,96.803 Z M255.326,96.803 L270.291,96.803 L270.291,190.216 L255.326,190.216 L255.326,96.803 Z M45.058,96.803 L60.023,96.803 L60.023,190.216 L45.058,190.216 L45.058,96.803 Z M105.134,96.803 L120.099,96.803 L120.099,190.216 L105.134,190.216 L105.134,96.803 Z M225.288,96.803 L240.253,96.803 L240.253,190.216 L225.288,190.216 L225.288,96.803 Z M195.25,96.803 L210.215,96.803 L210.215,190.216 L195.25,190.216 L195.25,96.803 Z M285.365,96.803 L300.33,96.803 L300.33,190.216 L285.365,190.216 L285.365,96.803 Z M30.038,0 L45.003,0 L45.003,96.803 L30.038,96.803 L30.038,0 Z M60.077,0 L75.042,0 L75.042,96.803 L60.077,96.803 L60.077,0 Z M150.192,0 L165.157,0 L165.157,96.803 L150.192,96.803 L150.192,0 Z M240.307,0 L255.272,0 L255.272,96.803 L240.307,96.803 L240.307,0 Z M0,0 L14.965,0 L14.965,96.803 L0,96.803 L0,0 Z M120.154,0 L135.119,0 L135.119,96.803 L120.154,96.803 L120.154,0 Z M210.269,0 L225.234,0 L225.234,96.803 L210.269,96.803 L210.269,0 Z M90.115,0 L105.08,0 L105.08,96.803 L90.115,96.803 L90.115,0 Z M180.23,0 L195.195,0 L195.195,96.803 L180.23,96.803 L180.23,0 Z M270.346,0 L285.311,0 L285.311,96.803 L270.346,96.803 L270.346,0 Z" id="grill"></path>
        </g>
    </g>
</svg>