<?xml version="1.0" encoding="UTF-8"?>
<svg width="199px" height="166px" viewBox="0 0 199 166" version="1.1" xmlns="http://www.w3.org/2000/svg" xmlns:xlink="http://www.w3.org/1999/xlink">
    <!-- Generator: Sketch 55.2 (78181) - https://sketchapp.com -->
    <title>pot</title>
    <desc>Created with Sketch.</desc>
    <g id="Page-1" stroke="none" stroke-width="1" fill="none" fill-rule="evenodd">
        <g id="pot" fill-rule="nonzero">
            <polygon id="Path" fill="#6AC32D" points="90.932 30.187 108.117 30.187 108.117 59.01 90.932 59.01"></polygon>
            <polygon id="Path" fill="#EBEAE6" points="40.052 22.905 57.068 22.905 57.068 42.365 40.052 42.365"></polygon>
            <polygon id="Path" fill="#FFBE07" points="57.069 0.306 73.748 0.306 73.748 59.018 57.069 59.018"></polygon>
            <polygon id="Path" fill="#6CD5D5" points="73.748 12.503 90.933 12.503 90.933 42.366 73.748 42.366"></polygon>
            <polygon id="Path" fill="#D672AF" points="108.117 22.905 125.302 22.905 125.302 42.365 108.117 42.365"></polygon>
            <polygon id="Path" fill="#E33D49" points="125.302 0 141.481 0 141.481 42.365 125.302 42.365"></polygon>
            <polygon id="Path" fill="#193EB7" points="141.481 12.503 158.666 12.503 158.666 42.366 141.481 42.366"></polygon>
            <polygon id="Path" fill="#6100DE" points="40.052 42.365 57.068 42.365 57.068 59.017 40.052 59.017"></polygon>
            <polygon id="Path" fill="#D672AF" points="73.748 42.365 90.933 42.365 90.933 59.017 73.748 59.017"></polygon>
            <polygon id="Path" fill="#6CD5D5" points="108.117 42.365 125.302 42.365 125.302 59.01 108.117 59.01"></polygon>
            <polygon id="Path" fill="#E8E8E4" points="141.481 42.365 158.666 42.365 158.666 59.017 141.481 59.017"></polygon>
            <path d="M198.386,76.557 L176.725,76.557 C176.731,75.505 176.725,59.027 176.725,59.027 C176.725,59.027 21.537,59 21.539,59.035 C21.539,59.035 21.534,66.175 21.534,76.557 L0,76.557 L0,97.981 L21.535,97.981 C21.535,124.167 21.541,154.099 21.535,155.162 C20.943,158.954 25.785,166.113 31.809,165.737 C32.156,165.785 163.209,165.683 166.167,165.737 C169.242,166.482 177.313,161.66 176.753,155.461 C176.829,155.24 176.743,122.033 176.714,97.98 L198.384,97.98 L198.386,76.557 L198.386,76.557 Z" id="Path" fill="#000000"></path>
            <path d="M86.9996406,84.8838199 L88.3883125,89.1494449 L89.8883125,84.8838199 L91.2359688,84.8838199 L91.2359688,93.4150699 L90.1812813,93.4150699 L90.1812813,90.0107731 L90.2691719,86.4482731 L88.693,91.0420231 L88.0719063,91.0420231 L86.6246406,86.5713199 L86.7125313,90.0107731 L86.7125313,93.4150699 L85.6578438,93.4150699 L85.6578438,84.8838199 L86.9996406,84.8838199 Z M98.5601875,89.6416324 C98.5562812,89.9463215 98.5299143,90.2539356 98.4810859,90.564484 C98.4322576,90.8750324 98.357063,91.1748341 98.2555,91.4638981 C98.153937,91.752962 98.0240555,92.0224906 97.8658516,92.2724918 C97.7076476,92.5224931 97.519173,92.7412409 97.3004219,92.9287418 C97.0816708,93.1162428 96.8306967,93.2637022 96.5474922,93.3711246 C96.2642876,93.478547 95.946908,93.5322574 95.5953438,93.5322574 C95.2437795,93.5322574 94.9263999,93.478547 94.6431953,93.3711246 C94.3599908,93.2637022 94.1090167,93.1162428 93.8902656,92.9287418 C93.6715145,92.7412409 93.4820633,92.5215165 93.3219063,92.2695621 C93.1617492,92.0176077 93.0299146,91.7471026 92.9263984,91.4580387 C92.8228823,91.1689747 92.7457346,90.8701496 92.6949531,90.5615543 C92.6441716,90.252959 92.6168281,89.9463215 92.6129219,89.6416324 L92.6129219,88.6689762 C92.6168281,88.3642872 92.6431951,88.0566731 92.6920234,87.7461246 C92.7408518,87.4355762 92.8170229,87.1357745 92.9205391,86.8467106 C93.0240552,86.5576466 93.1549133,86.2871415 93.3131172,86.0351871 C93.4713211,85.7832327 93.6597958,85.5625318 93.8785469,85.3730778 C94.097298,85.1836237 94.348272,85.0351877 94.6314766,84.9277653 C94.9146811,84.8203428 95.2320607,84.7666324 95.583625,84.7666324 C95.9351893,84.7666324 96.2535454,84.8203428 96.5387031,84.9277653 C96.8238608,85.0351877 97.0758114,85.1826471 97.2945625,85.3701481 C97.5133136,85.557649 97.7017883,85.7773734 97.8599922,86.0293278 C98.0181961,86.2812821 98.1490542,86.5517872 98.2525703,86.8408512 C98.3560865,87.1299151 98.4322576,87.4306934 98.4810859,87.7431949 C98.5299143,88.0556965 98.5562812,88.3642872 98.5601875,88.6689762 L98.5601875,89.6416324 Z M97.4879219,88.6572574 C97.4840156,88.4541314 97.4703439,88.2422195 97.4469063,88.0215153 C97.4234686,87.800811 97.38343,87.5820632 97.3267891,87.3652653 C97.2701482,87.1484673 97.1949536,86.9414381 97.1012031,86.7441715 C97.0074527,86.5469049 96.8902663,86.3730785 96.7496406,86.2226871 C96.6090149,86.0722958 96.443001,85.9531563 96.2515938,85.8652653 C96.0601865,85.7773742 95.8375325,85.7334293 95.583625,85.7334293 C95.3336238,85.7334293 95.1129228,85.7783507 94.9215156,85.8681949 C94.7301084,85.9580391 94.5640945,86.0781551 94.4234688,86.2285465 C94.282843,86.3789379 94.1656567,86.5527643 94.0719063,86.7500309 C93.9781558,86.9472975 93.9029612,87.1543267 93.8463203,87.3711246 C93.7896794,87.5879226 93.7486642,87.8066704 93.7232734,88.0273746 C93.6978827,88.2480789 93.6832344,88.4580377 93.6793281,88.6572574 L93.6793281,89.6416324 C93.6832344,89.8408522 93.6978827,90.0517876 93.7232734,90.2744449 C93.7486642,90.4971023 93.790656,90.7168267 93.84925,90.9336246 C93.907844,91.1504226 93.9840152,91.3584283 94.0777656,91.5576481 C94.1715161,91.7568678 94.2887024,91.9316708 94.4293281,92.0820621 C94.5699538,92.2324535 94.7359678,92.3525695 94.927375,92.4424137 C95.1187822,92.5322579 95.3414362,92.5771793 95.5953438,92.5771793 C95.8492513,92.5771793 96.0728818,92.5322579 96.2662422,92.4424137 C96.4596025,92.3525695 96.6256165,92.2324535 96.7642891,92.0820621 C96.9029616,91.9316708 97.0181949,91.7578444 97.1099922,91.5605778 C97.2017895,91.3633111 97.2760075,91.156282 97.3326484,90.939484 C97.3892893,90.722686 97.4283515,90.5029617 97.4498359,90.2803043 C97.4713204,90.057647 97.4840156,89.8447585 97.4879219,89.6416324 L97.4879219,88.6572574 Z M103.03675,89.9346012 L101.331672,89.9346012 L101.331672,93.4150699 L100.253547,93.4150699 L100.253547,84.8838199 L102.7555,84.8838199 C103.153939,84.8916325 103.528936,84.9482725 103.8805,85.0537418 C104.232064,85.1592111 104.539678,85.3174126 104.803352,85.5283512 C105.067025,85.7392897 105.274054,86.0039355 105.424445,86.3222965 C105.574837,86.6406575 105.650031,87.0146772 105.650031,87.4443668 C105.650031,87.721712 105.609993,87.9756157 105.529914,88.2060856 C105.449836,88.4365555 105.339485,88.6455378 105.198859,88.8330387 C105.058234,89.0205396 104.890267,89.1865536 104.694953,89.3310856 C104.49964,89.4756175 104.284798,89.5986632 104.050422,89.7002262 L105.860969,93.3447574 L105.855109,93.4150699 L104.712531,93.4150699 L103.03675,89.9346012 Z M101.331672,89.0439762 L102.784797,89.0439762 C103.026986,89.0400699 103.255499,89.0019844 103.470344,88.9297184 C103.685189,88.8574524 103.873663,88.7529612 104.035773,88.6162418 C104.197884,88.4795224 104.325812,88.3125319 104.419563,88.1152653 C104.513313,87.9179986 104.560188,87.6904619 104.560188,87.4326481 C104.560188,87.1592092 104.515266,86.9199538 104.425422,86.7148746 C104.335578,86.5097955 104.210579,86.3379222 104.050422,86.1992496 C103.890265,86.0605771 103.699837,85.9560859 103.479133,85.8857731 C103.258429,85.8154602 103.01722,85.7783512 102.7555,85.7744449 L101.331672,85.7744449 L101.331672,89.0439762 Z M112.107063,89.4717106 L108.544563,89.4717106 L108.544563,92.4951481 L112.698859,92.4951481 L112.698859,93.4150699 L107.460578,93.4150699 L107.460578,84.8838199 L112.646125,84.8838199 L112.646125,85.8096012 L108.544563,85.8096012 L108.544563,88.5517887 L112.107063,88.5517887 L112.107063,89.4717106 Z M65.396125,100.88382 L66.7847969,105.149445 L68.2847969,100.88382 L69.6324531,100.88382 L69.6324531,109.41507 L68.5777656,109.41507 L68.5777656,106.010773 L68.6656563,102.448273 L67.0894844,107.042023 L66.4683906,107.042023 L65.021125,102.57132 L65.1090156,106.010773 L65.1090156,109.41507 L64.0543281,109.41507 L64.0543281,100.88382 L65.396125,100.88382 Z M76.1012031,105.471711 L72.5387031,105.471711 L72.5387031,108.495148 L76.693,108.495148 L76.693,109.41507 L71.4547188,109.41507 L71.4547188,100.88382 L76.6402656,100.88382 L76.6402656,101.809601 L72.5387031,101.809601 L72.5387031,104.551789 L76.1012031,104.551789 L76.1012031,105.471711 Z M82.6812813,107.206086 L79.833625,107.206086 L79.1480781,109.41507 L78.0640938,109.41507 L80.818,100.88382 L81.7262031,100.88382 L84.4332344,109.41507 L83.3551094,109.41507 L82.6812813,107.206086 Z M80.1265938,106.262726 L82.3941719,106.262726 L81.2691719,102.559601 L80.1265938,106.262726 Z M91.1539375,109.41507 L90.052375,109.41507 L86.7418281,103.04007 L86.72425,109.41507 L85.6285469,109.41507 L85.6285469,100.88382 L86.7301094,100.88382 L90.0406563,107.247101 L90.0582344,100.88382 L91.1539375,100.88382 L91.1539375,109.41507 Z M93.0113594,100.88382 L98.1676094,100.88382 L98.1676094,101.827179 L96.1226875,101.827179 L96.1226875,108.47757 L98.1676094,108.47757 L98.1676094,109.41507 L93.0113594,109.41507 L93.0113594,108.47757 L95.0094063,108.47757 L95.0094063,101.827179 L93.0113594,101.827179 L93.0113594,100.88382 Z M105.556281,109.41507 L104.454719,109.41507 L101.144172,103.04007 L101.126594,109.41507 L100.030891,109.41507 L100.030891,100.88382 L101.132453,100.88382 L104.443,107.247101 L104.460578,100.88382 L105.556281,100.88382 L105.556281,109.41507 Z M112.933234,108.295929 C112.573858,108.717806 112.161752,109.030303 111.696906,109.233429 C111.23206,109.436555 110.7223,109.536164 110.167609,109.532257 C109.816045,109.528351 109.492806,109.474641 109.197883,109.371125 C108.902959,109.267608 108.638314,109.125032 108.403938,108.94339 C108.169561,108.761749 107.964485,108.547884 107.788703,108.301789 C107.612921,108.055694 107.465462,107.789095 107.34632,107.501984 C107.227179,107.214873 107.137336,106.914095 107.076789,106.59964 C107.016242,106.285186 106.984016,105.967806 106.980109,105.647492 L106.980109,104.657257 C106.984016,104.34085 107.012336,104.025423 107.06507,103.710968 C107.117805,103.396514 107.198859,103.094759 107.308234,102.805695 C107.41761,102.516631 107.554327,102.248079 107.718391,102.000031 C107.882454,101.751983 108.078741,101.537141 108.307258,101.3555 C108.535775,101.173858 108.794561,101.030305 109.083625,100.924836 C109.372689,100.819366 109.696904,100.766632 110.056281,100.766632 C110.454721,100.766632 110.821905,100.828155 111.157844,100.951203 C111.493783,101.07425 111.786749,101.25003 112.03675,101.478547 C112.286751,101.707063 112.487921,101.982451 112.640266,102.304718 C112.79261,102.626986 112.886359,102.987334 112.921516,103.385773 L111.84925,103.385773 C111.806281,103.139678 111.739875,102.912141 111.650031,102.703156 C111.560187,102.49417 111.442024,102.315461 111.295539,102.167023 C111.149054,102.018585 110.974251,101.902375 110.771125,101.81839 C110.567999,101.734405 110.331673,101.692414 110.062141,101.692414 C109.804327,101.692414 109.575813,101.736359 109.376594,101.82425 C109.177374,101.912141 109.003548,102.030304 108.855109,102.178742 C108.706671,102.32718 108.583625,102.50003 108.485969,102.697297 C108.388312,102.894563 108.308235,103.102569 108.245734,103.32132 C108.183234,103.540071 108.138313,103.762725 108.110969,103.989289 C108.083625,104.215852 108.069953,104.4346 108.069953,104.645539 L108.069953,105.647492 C108.073859,105.862337 108.092414,106.084014 108.125617,106.312531 C108.15882,106.541048 108.210578,106.764678 108.280891,106.983429 C108.351203,107.20218 108.441046,107.40921 108.550422,107.604523 C108.659797,107.799837 108.791632,107.97171 108.94593,108.120148 C109.100227,108.268586 109.278936,108.386749 109.482063,108.47464 C109.685189,108.562531 109.915655,108.608429 110.173469,108.612336 C110.321907,108.616242 110.477179,108.610383 110.639289,108.594757 C110.801399,108.579132 110.958624,108.547883 111.110969,108.501007 C111.263313,108.454132 111.40589,108.390656 111.538703,108.310578 C111.671516,108.230499 111.782843,108.126008 111.872688,107.997101 L111.884406,106.081086 L110.150031,106.081086 L110.150031,105.167023 L112.915656,105.167023 L112.933234,108.295929 Z M119.360969,105.647492 L115.810188,105.647492 L115.810188,109.41507 L114.714484,109.41507 L114.714484,100.88382 L119.952766,100.88382 L119.952766,101.809601 L115.810188,101.809601 L115.810188,104.72757 L119.360969,104.72757 L119.360969,105.647492 Z M127.171516,100.88382 L127.183234,106.661164 C127.175422,107.059603 127.103157,107.432646 126.966438,107.780304 C126.829718,108.127962 126.638314,108.43167 126.392219,108.691437 C126.146124,108.951204 125.853158,109.15628 125.513313,109.306672 C125.173467,109.457063 124.800424,109.532257 124.394172,109.532257 C123.980107,109.532257 123.603158,109.458039 123.263313,109.309601 C122.923467,109.161163 122.632454,108.957063 122.390266,108.697297 C122.148077,108.43753 121.958626,108.132845 121.821906,107.783234 C121.685187,107.433623 121.614875,107.059603 121.610969,106.661164 L121.622688,100.88382 L122.653938,100.88382 L122.677375,106.661164 C122.681281,106.915071 122.72132,107.159209 122.797492,107.393586 C122.873664,107.627962 122.983038,107.834991 123.125617,108.014679 C123.268196,108.194368 123.445929,108.338898 123.65882,108.448273 C123.871712,108.557649 124.116827,108.612336 124.394172,108.612336 C124.671517,108.612336 124.915655,108.558625 125.126594,108.451203 C125.337532,108.34378 125.514288,108.199251 125.656867,108.017609 C125.799446,107.835967 125.907843,107.627962 125.982063,107.393586 C126.056282,107.159209 126.097297,106.915071 126.105109,106.661164 L126.122688,100.88382 L127.171516,100.88382 Z M130.241828,108.495148 L134.413703,108.495148 L134.413703,109.41507 L129.157844,109.41507 L129.157844,100.88382 L130.241828,100.88382 L130.241828,108.495148 Z M57.0055,116.88382 L62.16175,116.88382 L62.16175,117.827179 L60.1168281,117.827179 L60.1168281,124.47757 L62.16175,124.47757 L62.16175,125.41507 L57.0055,125.41507 L57.0055,124.47757 L59.0035469,124.47757 L59.0035469,117.827179 L57.0055,117.827179 L57.0055,116.88382 Z M65.4312813,124.495148 L69.6031563,124.495148 L69.6031563,125.41507 L64.3472969,125.41507 L64.3472969,116.88382 L65.4312813,116.88382 L65.4312813,124.495148 Z M72.6324531,124.495148 L76.8043281,124.495148 L76.8043281,125.41507 L71.5484688,125.41507 L71.5484688,116.88382 L72.6324531,116.88382 L72.6324531,124.495148 Z M83.9644844,116.88382 L83.9762031,122.661164 C83.9683906,123.059603 83.8961257,123.432646 83.7594063,123.780304 C83.6226868,124.127962 83.4312825,124.43167 83.1851875,124.691437 C82.9390925,124.951204 82.6461267,125.15628 82.3062813,125.306672 C81.9664358,125.457063 81.5933927,125.532257 81.1871406,125.532257 C80.7730761,125.532257 80.3961267,125.458039 80.0562813,125.309601 C79.7164358,125.161163 79.4254231,124.957063 79.1832344,124.697297 C78.9410457,124.43753 78.7515944,124.132845 78.614875,123.783234 C78.4781556,123.433623 78.4078438,123.059603 78.4039375,122.661164 L78.4156563,116.88382 L79.4469063,116.88382 L79.4703438,122.661164 C79.47425,122.915071 79.5142887,123.159209 79.5904609,123.393586 C79.6666332,123.627962 79.7760071,123.834991 79.9185859,124.014679 C80.0611648,124.194368 80.2388974,124.338898 80.4517891,124.448273 C80.6646808,124.557649 80.9097955,124.612336 81.1871406,124.612336 C81.4644858,124.612336 81.7086239,124.558625 81.9195625,124.451203 C82.1305011,124.34378 82.3072571,124.199251 82.4498359,124.017609 C82.5924148,123.835967 82.7008121,123.627962 82.7750313,123.393586 C82.8492504,123.159209 82.8902656,122.915071 82.8980781,122.661164 L82.9156563,116.88382 L83.9644844,116.88382 Z M90.2750313,123.25882 C90.2750313,122.9971 90.2154615,122.776399 90.0963203,122.596711 C89.9771791,122.417022 89.8238603,122.265656 89.6363594,122.142609 C89.4488584,122.019562 89.2428058,121.917023 89.0181953,121.834992 C88.7935848,121.75296 88.5777667,121.678742 88.3707344,121.612336 C88.0699516,121.514679 87.7642906,121.397492 87.4537422,121.260773 C87.1431938,121.124054 86.8599935,120.956087 86.6041328,120.756867 C86.3482722,120.557647 86.1392899,120.322298 85.9771797,120.050812 C85.8150695,119.779326 85.7340156,119.459994 85.7340156,119.092804 C85.7340156,118.725615 85.8150695,118.397493 85.9771797,118.108429 C86.1392899,117.819365 86.3512018,117.575227 86.6129219,117.376007 C86.8746419,117.176788 87.171514,117.025422 87.5035469,116.921906 C87.8355798,116.81839 88.1695608,116.766632 88.5055,116.766632 C88.8765956,116.766632 89.2340139,116.828155 89.5777656,116.951203 C89.9215173,117.07425 90.2262018,117.2471 90.4918281,117.469757 C90.7574545,117.692415 90.9703429,117.961943 91.1305,118.278351 C91.2906571,118.594759 91.3746406,118.948271 91.3824531,119.338898 L90.2691719,119.338898 C90.2379217,119.092803 90.1773754,118.869173 90.0875313,118.668 C89.9976871,118.466827 89.8785476,118.293977 89.7301094,118.149445 C89.5816711,118.004913 89.4049151,117.892609 89.1998359,117.812531 C88.9947568,117.732452 88.7633138,117.692414 88.5055,117.692414 C88.2984677,117.692414 88.0963213,117.72171 87.8990547,117.780304 C87.7017881,117.838898 87.5260086,117.926788 87.3717109,118.043976 C87.2174133,118.161164 87.0943676,118.305694 87.0025703,118.47757 C86.910773,118.649446 86.864875,118.848663 86.864875,119.075226 C86.8687813,119.321321 86.9312806,119.529327 87.052375,119.69925 C87.1734694,119.869172 87.3267881,120.012726 87.5123359,120.129914 C87.6978837,120.247102 87.8990536,120.344757 88.1158516,120.422882 C88.3326495,120.501008 88.536749,120.569367 88.7281563,120.627961 C88.9390948,120.694367 89.1519833,120.769562 89.3668281,120.853547 C89.5816729,120.937531 89.7887021,121.03421 89.9879219,121.143586 C90.1871416,121.252961 90.3726866,121.376007 90.5445625,121.512726 C90.7164384,121.649446 90.8668275,121.804718 90.9957344,121.978547 C91.1246413,122.152375 91.2252262,122.34378 91.2974922,122.552765 C91.3697582,122.761751 91.4058906,122.993194 91.4058906,123.247101 C91.4058906,123.629916 91.3209305,123.963897 91.1510078,124.249054 C90.9810851,124.534212 90.7613607,124.771514 90.4918281,124.960968 C90.2222955,125.150422 89.9176111,125.292999 89.5777656,125.388703 C89.2379202,125.484406 88.8980798,125.532257 88.5582344,125.532257 C88.1793262,125.532257 87.8082362,125.473664 87.4449531,125.356476 C87.0816701,125.239288 86.756478,125.070344 86.4693672,124.84964 C86.1822564,124.628936 85.9488603,124.359407 85.7691719,124.041047 C85.5894835,123.722686 85.4937813,123.360384 85.4820625,122.954132 L86.5894844,122.954132 C86.6246408,123.219759 86.6969057,123.455108 86.8062813,123.660187 C86.9156568,123.865266 87.0562804,124.039093 87.2281563,124.181672 C87.4000321,124.32425 87.5982723,124.431671 87.8228828,124.503937 C88.0474933,124.576203 88.292608,124.612336 88.5582344,124.612336 C88.7691729,124.612336 88.9771787,124.585969 89.1822578,124.533234 C89.387337,124.480499 89.5699523,124.398469 89.7301094,124.28714 C89.8902664,124.175812 90.0211245,124.035188 90.1226875,123.865265 C90.2242505,123.695343 90.2750313,123.493196 90.2750313,123.25882 Z M98.7652656,117.809601 L96.1285469,117.809601 L96.1285469,125.41507 L95.0738594,125.41507 L95.0738594,117.809601 L92.4371406,117.809601 L92.4371406,116.88382 L98.7652656,116.88382 L98.7652656,117.809601 Z M103.03675,121.934601 L101.331672,121.934601 L101.331672,125.41507 L100.253547,125.41507 L100.253547,116.88382 L102.7555,116.88382 C103.153939,116.891632 103.528936,116.948273 103.8805,117.053742 C104.232064,117.159211 104.539678,117.317413 104.803352,117.528351 C105.067025,117.73929 105.274054,118.003936 105.424445,118.322297 C105.574837,118.640657 105.650031,119.014677 105.650031,119.444367 C105.650031,119.721712 105.609993,119.975616 105.529914,120.206086 C105.449836,120.436555 105.339485,120.645538 105.198859,120.833039 C105.058234,121.02054 104.890267,121.186554 104.694953,121.331086 C104.49964,121.475618 104.284798,121.598663 104.050422,121.700226 L105.860969,125.344757 L105.855109,125.41507 L104.712531,125.41507 L103.03675,121.934601 Z M101.331672,121.043976 L102.784797,121.043976 C103.026986,121.04007 103.255499,121.001984 103.470344,120.929718 C103.685189,120.857452 103.873663,120.752961 104.035773,120.616242 C104.197884,120.479522 104.325812,120.312532 104.419563,120.115265 C104.513313,119.917999 104.560188,119.690462 104.560188,119.432648 C104.560188,119.159209 104.515266,118.919954 104.425422,118.714875 C104.335578,118.509795 104.210579,118.337922 104.050422,118.19925 C103.890265,118.060577 103.699837,117.956086 103.479133,117.885773 C103.258429,117.81546 103.01722,117.778351 102.7555,117.774445 L101.331672,117.774445 L101.331672,121.043976 Z M111.485969,123.206086 L108.638313,123.206086 L107.952766,125.41507 L106.868781,125.41507 L109.622688,116.88382 L110.530891,116.88382 L113.237922,125.41507 L112.159797,125.41507 L111.485969,123.206086 Z M108.931281,122.262726 L111.198859,122.262726 L110.073859,118.559601 L108.931281,122.262726 Z M120.368781,117.809601 L117.732063,117.809601 L117.732063,125.41507 L116.677375,125.41507 L116.677375,117.809601 L114.040656,117.809601 L114.040656,116.88382 L120.368781,116.88382 L120.368781,117.809601 Z M121.816047,116.88382 L126.972297,116.88382 L126.972297,117.827179 L124.927375,117.827179 L124.927375,124.47757 L126.972297,124.47757 L126.972297,125.41507 L121.816047,125.41507 L121.816047,124.47757 L123.814094,124.47757 L123.814094,117.827179 L121.816047,117.827179 L121.816047,116.88382 Z M134.566047,121.641632 C134.562141,121.946321 134.535774,122.253936 134.486945,122.564484 C134.438117,122.875032 134.362922,123.174834 134.261359,123.463898 C134.159796,123.752962 134.029915,124.022491 133.871711,124.272492 C133.713507,124.522493 133.525032,124.741241 133.306281,124.928742 C133.08753,125.116243 132.836556,125.263702 132.553352,125.371125 C132.270147,125.478547 131.952767,125.532257 131.601203,125.532257 C131.249639,125.532257 130.932259,125.478547 130.649055,125.371125 C130.36585,125.263702 130.114876,125.116243 129.896125,124.928742 C129.677374,124.741241 129.487923,124.521517 129.327766,124.269562 C129.167609,124.017608 129.035774,123.747103 128.932258,123.458039 C128.828742,123.168975 128.751594,122.87015 128.700813,122.561554 C128.650031,122.252959 128.622688,121.946321 128.618781,121.641632 L128.618781,120.668976 C128.622688,120.364287 128.649054,120.056673 128.697883,119.746125 C128.746711,119.435576 128.822882,119.135775 128.926398,118.846711 C129.029915,118.557647 129.160773,118.287142 129.318977,118.035187 C129.47718,117.783233 129.665655,117.562532 129.884406,117.373078 C130.103157,117.183624 130.354131,117.035188 130.637336,116.927765 C130.92054,116.820343 131.23792,116.766632 131.589484,116.766632 C131.941049,116.766632 132.259405,116.820343 132.544563,116.927765 C132.82972,117.035188 133.081671,117.182647 133.300422,117.370148 C133.519173,117.557649 133.707648,117.777373 133.865852,118.029328 C134.024055,118.281282 134.154914,118.551787 134.25843,118.840851 C134.361946,119.129915 134.438117,119.430693 134.486945,119.743195 C134.535774,120.055697 134.562141,120.364287 134.566047,120.668976 L134.566047,121.641632 Z M133.493781,120.657257 C133.489875,120.454131 133.476203,120.242219 133.452766,120.021515 C133.429328,119.800811 133.389289,119.582063 133.332648,119.365265 C133.276008,119.148467 133.200813,118.941438 133.107063,118.744172 C133.013312,118.546905 132.896126,118.373079 132.7555,118.222687 C132.614874,118.072296 132.44886,117.953156 132.257453,117.865265 C132.066046,117.777374 131.843392,117.733429 131.589484,117.733429 C131.339483,117.733429 131.118782,117.778351 130.927375,117.868195 C130.735968,117.958039 130.569954,118.078155 130.429328,118.228547 C130.288702,118.378938 130.171516,118.552764 130.077766,118.750031 C129.984015,118.947297 129.908821,119.154327 129.85218,119.371125 C129.795539,119.587923 129.754524,119.80667 129.729133,120.027375 C129.703742,120.248079 129.689094,120.458038 129.685188,120.657257 L129.685188,121.641632 C129.689094,121.840852 129.703742,122.051788 129.729133,122.274445 C129.754524,122.497102 129.796515,122.716827 129.855109,122.933625 C129.913703,123.150423 129.989875,123.358428 130.083625,123.557648 C130.177375,123.756868 130.294562,123.931671 130.435188,124.082062 C130.575813,124.232454 130.741827,124.352569 130.933234,124.442414 C131.124642,124.532258 131.347296,124.577179 131.601203,124.577179 C131.855111,124.577179 132.078741,124.532258 132.272102,124.442414 C132.465462,124.352569 132.631476,124.232454 132.770148,124.082062 C132.908821,123.931671 133.024054,123.757844 133.115852,123.560578 C133.207649,123.363311 133.281867,123.156282 133.338508,122.939484 C133.395149,122.722686 133.434211,122.502962 133.455695,122.280304 C133.47718,122.057647 133.489875,121.844758 133.493781,121.641632 L133.493781,120.657257 Z M141.562141,125.41507 L140.460578,125.41507 L137.150031,119.04007 L137.132453,125.41507 L136.03675,125.41507 L136.03675,116.88382 L137.138313,116.88382 L140.448859,123.247101 L140.466438,116.88382 L141.562141,116.88382 L141.562141,125.41507 Z M73.3267891,140.295929 C72.9674123,140.717806 72.555307,141.030303 72.0904609,141.233429 C71.6256149,141.436555 71.1158543,141.536164 70.5611641,141.532257 C70.2095998,141.528351 69.8863608,141.474641 69.5914375,141.371125 C69.2965142,141.267608 69.0318684,141.125032 68.7974922,140.94339 C68.563116,140.761749 68.3580399,140.547884 68.1822578,140.301789 C68.0064757,140.055694 67.8590162,139.789095 67.739875,139.501984 C67.6207338,139.214873 67.5308909,138.914095 67.4703438,138.59964 C67.4097966,138.285186 67.3775703,137.967806 67.3736641,137.647492 L67.3736641,136.657257 C67.3775703,136.34085 67.4058904,136.025423 67.458625,135.710968 C67.5113596,135.396514 67.5924135,135.094759 67.7017891,134.805695 C67.8111646,134.516631 67.947882,134.248079 68.1119453,134.000031 C68.2760086,133.751983 68.4722957,133.537141 68.7008125,133.3555 C68.9293293,133.173858 69.1881157,133.030305 69.4771797,132.924836 C69.7662436,132.819366 70.0904591,132.766632 70.4498359,132.766632 C70.8482754,132.766632 71.2154593,132.828155 71.5513984,132.951203 C71.8873376,133.07425 72.1803034,133.25003 72.4303047,133.478547 C72.6803059,133.707063 72.8814758,133.982451 73.0338203,134.304718 C73.1861648,134.626986 73.2799139,134.987334 73.3150703,135.385773 L72.2428047,135.385773 C72.1998357,135.139678 72.1334301,134.912141 72.0435859,134.703156 C71.9537417,134.49417 71.8355789,134.315461 71.6890938,134.167023 C71.5426086,134.018585 71.3678057,133.902375 71.1646797,133.81839 C70.9615537,133.734405 70.7252279,133.692414 70.4556953,133.692414 C70.1978815,133.692414 69.9693682,133.736359 69.7701484,133.82425 C69.5709287,133.912141 69.3971023,134.030304 69.2486641,134.178742 C69.1002258,134.32718 68.9771802,134.50003 68.8795234,134.697297 C68.7818667,134.894563 68.7017894,135.102569 68.6392891,135.32132 C68.5767888,135.540071 68.5318673,135.762725 68.5045234,135.989289 C68.4771796,136.215852 68.4635078,136.4346 68.4635078,136.645539 L68.4635078,137.647492 C68.4674141,137.862337 68.4859686,138.084014 68.5191719,138.312531 C68.5523752,138.541048 68.6041325,138.764678 68.6744453,138.983429 C68.7447582,139.20218 68.834601,139.40921 68.9439766,139.604523 C69.0533521,139.799837 69.1851867,139.97171 69.3394844,140.120148 C69.493782,140.268586 69.6724912,140.386749 69.8756172,140.47464 C70.0787432,140.562531 70.3092096,140.608429 70.5670234,140.612336 C70.7154617,140.616242 70.8707336,140.610383 71.0328438,140.594757 C71.1949539,140.579132 71.3521789,140.547883 71.5045234,140.501007 C71.6568679,140.454132 71.7994446,140.390656 71.9322578,140.310578 C72.065071,140.230499 72.176398,140.126008 72.2662422,139.997101 L72.2779609,138.081086 L70.5435859,138.081086 L70.5435859,137.167023 L73.3092109,137.167023 L73.3267891,140.295929 Z M80.5572578,137.641632 C80.5533515,137.946321 80.5269846,138.253936 80.4781563,138.564484 C80.4293279,138.875032 80.3541333,139.174834 80.2525703,139.463898 C80.1510073,139.752962 80.0211258,140.022491 79.8629219,140.272492 C79.704718,140.522493 79.5162433,140.741241 79.2974922,140.928742 C79.0787411,141.116243 78.827767,141.263702 78.5445625,141.371125 C78.261358,141.478547 77.9439783,141.532257 77.5924141,141.532257 C77.2408498,141.532257 76.9234702,141.478547 76.6402656,141.371125 C76.3570611,141.263702 76.106087,141.116243 75.8873359,140.928742 C75.6685848,140.741241 75.4791336,140.521517 75.3189766,140.269562 C75.1588195,140.017608 75.0269849,139.747103 74.9234688,139.458039 C74.8199526,139.168975 74.7428049,138.87015 74.6920234,138.561554 C74.6412419,138.252959 74.6138985,137.946321 74.6099922,137.641632 L74.6099922,136.668976 C74.6138985,136.364287 74.6402654,136.056673 74.6890938,135.746125 C74.7379221,135.435576 74.8140932,135.135775 74.9176094,134.846711 C75.0211255,134.557647 75.1519836,134.287142 75.3101875,134.035187 C75.4683914,133.783233 75.6568661,133.562532 75.8756172,133.373078 C76.0943683,133.183624 76.3453423,133.035188 76.6285469,132.927765 C76.9117514,132.820343 77.2291311,132.766632 77.5806953,132.766632 C77.9322596,132.766632 78.2506158,132.820343 78.5357734,132.927765 C78.8209311,133.035188 79.0728817,133.182647 79.2916328,133.370148 C79.5103839,133.557649 79.6988586,133.777373 79.8570625,134.029328 C80.0152664,134.281282 80.1461245,134.551787 80.2496406,134.840851 C80.3531568,135.129915 80.4293279,135.430693 80.4781563,135.743195 C80.5269846,136.055697 80.5533515,136.364287 80.5572578,136.668976 L80.5572578,137.641632 Z M79.4849922,136.657257 C79.4810859,136.454131 79.4674142,136.242219 79.4439766,136.021515 C79.4205389,135.800811 79.3805003,135.582063 79.3238594,135.365265 C79.2672185,135.148467 79.1920239,134.941438 79.0982734,134.744172 C79.004523,134.546905 78.8873366,134.373079 78.7467109,134.222687 C78.6060852,134.072296 78.4400713,133.953156 78.2486641,133.865265 C78.0572569,133.777374 77.8346028,133.733429 77.5806953,133.733429 C77.3306941,133.733429 77.1099931,133.778351 76.9185859,133.868195 C76.7271787,133.958039 76.5611648,134.078155 76.4205391,134.228547 C76.2799134,134.378938 76.162727,134.552764 76.0689766,134.750031 C75.9752261,134.947297 75.9000315,135.154327 75.8433906,135.371125 C75.7867497,135.587923 75.7457345,135.80667 75.7203438,136.027375 C75.694953,136.248079 75.6803047,136.458038 75.6763984,136.657257 L75.6763984,137.641632 C75.6803047,137.840852 75.694953,138.051788 75.7203438,138.274445 C75.7457345,138.497102 75.7877263,138.716827 75.8463203,138.933625 C75.9049144,139.150423 75.9810855,139.358428 76.0748359,139.557648 C76.1685864,139.756868 76.2857727,139.931671 76.4263984,140.082062 C76.5670241,140.232454 76.7330381,140.352569 76.9244453,140.442414 C77.1158525,140.532258 77.3385065,140.577179 77.5924141,140.577179 C77.8463216,140.577179 78.0699522,140.532258 78.2633125,140.442414 C78.4566728,140.352569 78.6226868,140.232454 78.7613594,140.082062 C78.9000319,139.931671 79.0152652,139.757844 79.1070625,139.560578 C79.1988598,139.363311 79.2730778,139.156282 79.3297188,138.939484 C79.3863597,138.722686 79.4254218,138.502962 79.4469063,138.280304 C79.4683907,138.057647 79.4810859,137.844758 79.4849922,137.641632 L79.4849922,136.657257 Z M86.9029609,137.471711 L83.3404609,137.471711 L83.3404609,140.495148 L87.4947578,140.495148 L87.4947578,141.41507 L82.2564766,141.41507 L82.2564766,132.88382 L87.4420234,132.88382 L87.4420234,133.809601 L83.3404609,133.809601 L83.3404609,136.551789 L86.9029609,136.551789 L86.9029609,137.471711 Z M93.8756172,139.25882 C93.8756172,138.9971 93.8160475,138.776399 93.6969063,138.596711 C93.577765,138.417022 93.4244463,138.265656 93.2369453,138.142609 C93.0494444,138.019562 92.8433917,137.917023 92.6187813,137.834992 C92.3941708,137.75296 92.1783526,137.678742 91.9713203,137.612336 C91.6705376,137.514679 91.3648766,137.397492 91.0543281,137.260773 C90.7437797,137.124054 90.4605794,136.956087 90.2047188,136.756867 C89.9488581,136.557647 89.7398758,136.322298 89.5777656,136.050812 C89.4156554,135.779326 89.3346016,135.459994 89.3346016,135.092804 C89.3346016,134.725615 89.4156554,134.397493 89.5777656,134.108429 C89.7398758,133.819365 89.9517878,133.575227 90.2135078,133.376007 C90.4752279,133.176788 90.7720999,133.025422 91.1041328,132.921906 C91.4361657,132.81839 91.7701468,132.766632 92.1060859,132.766632 C92.4771815,132.766632 92.8345998,132.828155 93.1783516,132.951203 C93.5221033,133.07425 93.8267877,133.2471 94.0924141,133.469757 C94.3580404,133.692415 94.5709289,133.961943 94.7310859,134.278351 C94.891243,134.594759 94.9752265,134.948271 94.9830391,135.338898 L93.8697578,135.338898 C93.8385077,135.092803 93.7779614,134.869173 93.6881172,134.668 C93.598273,134.466827 93.4791336,134.293977 93.3306953,134.149445 C93.1822571,134.004913 93.005501,133.892609 92.8004219,133.812531 C92.5953427,133.732452 92.3638997,133.692414 92.1060859,133.692414 C91.8990537,133.692414 91.6969072,133.72171 91.4996406,133.780304 C91.302374,133.838898 91.1265945,133.926788 90.9722969,134.043976 C90.8179992,134.161164 90.6949536,134.305694 90.6031563,134.47757 C90.5113589,134.649446 90.4654609,134.848663 90.4654609,135.075226 C90.4693672,135.321321 90.5318666,135.529327 90.6529609,135.69925 C90.7740553,135.869172 90.9273741,136.012726 91.1129219,136.129914 C91.2984697,136.247102 91.4996395,136.344757 91.7164375,136.422882 C91.9332355,136.501008 92.137335,136.569367 92.3287422,136.627961 C92.5396807,136.694367 92.7525692,136.769562 92.9674141,136.853547 C93.1822589,136.937531 93.3892881,137.03421 93.5885078,137.143586 C93.7877276,137.252961 93.9732726,137.376007 94.1451484,137.512726 C94.3170243,137.649446 94.4674134,137.804718 94.5963203,137.978547 C94.7252272,138.152375 94.8258121,138.34378 94.8980781,138.552765 C94.9703441,138.761751 95.0064766,138.993194 95.0064766,139.247101 C95.0064766,139.629916 94.9215165,139.963897 94.7515938,140.249054 C94.581671,140.534212 94.3619467,140.771514 94.0924141,140.960968 C93.8228815,141.150422 93.518197,141.292999 93.1783516,141.388703 C92.8385061,141.484406 92.4986658,141.532257 92.1588203,141.532257 C91.7799122,141.532257 91.4088221,141.473664 91.0455391,141.356476 C90.682256,141.239288 90.3570639,141.070344 90.0699531,140.84964 C89.7828423,140.628936 89.5494462,140.359407 89.3697578,140.041047 C89.1900694,139.722686 89.0943672,139.360384 89.0826484,138.954132 L90.1900703,138.954132 C90.2252267,139.219759 90.2974916,139.455108 90.4068672,139.660187 C90.5162427,139.865266 90.6568663,140.039093 90.8287422,140.181672 C91.000618,140.32425 91.1988583,140.431671 91.4234688,140.503937 C91.6480792,140.576203 91.893194,140.612336 92.1588203,140.612336 C92.3697589,140.612336 92.5777646,140.585969 92.7828438,140.533234 C92.9879229,140.480499 93.1705383,140.398469 93.3306953,140.28714 C93.4908524,140.175812 93.6217104,140.035188 93.7232734,139.865265 C93.8248364,139.695343 93.8756172,139.493196 93.8756172,139.25882 Z M109.162727,141.41507 L108.137336,141.41507 L108.137336,137.471711 L104.639289,137.471711 L104.639289,141.41507 L103.619758,141.41507 L103.619758,132.88382 L104.639289,132.88382 L104.639289,136.551789 L108.137336,136.551789 L108.137336,132.88382 L109.162727,132.88382 L109.162727,141.41507 Z M115.707648,137.471711 L112.145148,137.471711 L112.145148,140.495148 L116.299445,140.495148 L116.299445,141.41507 L111.061164,141.41507 L111.061164,132.88382 L116.246711,132.88382 L116.246711,133.809601 L112.145148,133.809601 L112.145148,136.551789 L115.707648,136.551789 L115.707648,137.471711 Z M121.03968,137.934601 L119.334602,137.934601 L119.334602,141.41507 L118.256477,141.41507 L118.256477,132.88382 L120.75843,132.88382 C121.156869,132.891632 121.531865,132.948273 121.88343,133.053742 C122.234994,133.159211 122.542608,133.317413 122.806281,133.528351 C123.069954,133.73929 123.276984,134.003936 123.427375,134.322297 C123.577766,134.640657 123.652961,135.014677 123.652961,135.444367 C123.652961,135.721712 123.612922,135.975616 123.532844,136.206086 C123.452765,136.436555 123.342415,136.645538 123.201789,136.833039 C123.061163,137.02054 122.893196,137.186554 122.697883,137.331086 C122.502569,137.475618 122.287728,137.598663 122.053352,137.700226 L123.863898,141.344757 L123.858039,141.41507 L122.715461,141.41507 L121.03968,137.934601 Z M119.334602,137.043976 L120.787727,137.043976 C121.029915,137.04007 121.258429,137.001984 121.473273,136.929718 C121.688118,136.857452 121.876593,136.752961 122.038703,136.616242 C122.200813,136.479522 122.328742,136.312532 122.422492,136.115265 C122.516243,135.917999 122.563117,135.690462 122.563117,135.432648 C122.563117,135.159209 122.518196,134.919954 122.428352,134.714875 C122.338507,134.509795 122.213509,134.337922 122.053352,134.19925 C121.893195,134.060577 121.702767,133.956086 121.482063,133.885773 C121.261358,133.81546 121.02015,133.778351 120.75843,133.774445 L119.334602,133.774445 L119.334602,137.043976 Z M130.109992,137.471711 L126.547492,137.471711 L126.547492,140.495148 L130.701789,140.495148 L130.701789,141.41507 L125.463508,141.41507 L125.463508,132.88382 L130.649055,132.88382 L130.649055,133.809601 L126.547492,133.809601 L126.547492,136.551789 L130.109992,136.551789 L130.109992,137.471711 Z" id="MOREMEANINGFULILLUSTRATIONGOESHERE" fill="#FFFFFF"></path>
        </g>
    </g>
</svg>