<?xml version="1.0" encoding="UTF-8"?>
<svg width="1035px" height="633px" viewBox="0 0 1035 633" version="1.1" xmlns="http://www.w3.org/2000/svg" xmlns:xlink="http://www.w3.org/1999/xlink">
    <!-- Generator: Sketch 55.2 (78181) - https://sketchapp.com -->
    <title>error</title>
    <desc>Created with Sketch.</desc>
    <defs>
        <path d="M532.208984,183.414062 L530.373047,183.414062 L524.855469,172.789062 L524.826172,183.414062 L523,183.414062 L523,169.195312 L524.835938,169.195312 L530.353516,179.800781 L530.382812,169.195312 L532.208984,169.195312 L532.208984,183.414062 Z M544.552734,177.125 C544.546224,177.632815 544.502279,178.145505 544.420898,178.663086 C544.339518,179.180667 544.214194,179.680336 544.044922,180.162109 C543.87565,180.643883 543.659181,181.093097 543.395508,181.509766 C543.131835,181.926434 542.81771,182.291014 542.453125,182.603516 C542.08854,182.916017 541.67025,183.161783 541.198242,183.34082 C540.726235,183.519858 540.197269,183.609375 539.611328,183.609375 C539.025388,183.609375 538.496422,183.519858 538.024414,183.34082 C537.552406,183.161783 537.134116,182.916017 536.769531,182.603516 C536.404946,182.291014 536.089194,181.924807 535.822266,181.504883 C535.555337,181.084959 535.335613,180.634117 535.163086,180.152344 C534.990559,179.670571 534.86198,179.172529 534.777344,178.658203 C534.692708,178.143878 534.647135,177.632815 534.640625,177.125 L534.640625,175.503906 C534.647135,174.996091 534.69108,174.483401 534.772461,173.96582 C534.853842,173.44824 534.980793,172.94857 535.15332,172.466797 C535.325847,171.985024 535.543944,171.534182 535.807617,171.114258 C536.07129,170.694334 536.385415,170.326499 536.75,170.010742 C537.114585,169.694985 537.532875,169.447592 538.004883,169.268555 C538.47689,169.089517 539.005856,169 539.591797,169 C540.177737,169 540.708331,169.089517 541.183594,169.268555 C541.658857,169.447592 542.078774,169.693358 542.443359,170.005859 C542.807945,170.318361 543.122069,170.684568 543.385742,171.104492 C543.649415,171.524416 543.867512,171.975258 544.040039,172.457031 C544.212566,172.938804 544.339518,173.440102 544.420898,173.960938 C544.502279,174.481773 544.546224,174.996091 544.552734,175.503906 L544.552734,177.125 Z M542.765625,175.484375 C542.759115,175.145832 542.736328,174.792645 542.697266,174.424805 C542.658203,174.056964 542.591472,173.692385 542.49707,173.331055 C542.402669,172.969725 542.277345,172.624676 542.121094,172.295898 C541.964843,171.967121 541.769532,171.67741 541.535156,171.426758 C541.30078,171.176106 541.02409,170.97754 540.705078,170.831055 C540.386066,170.68457 540.014976,170.611328 539.591797,170.611328 C539.175128,170.611328 538.807293,170.686197 538.488281,170.835938 C538.169269,170.985678 537.892579,171.185871 537.658203,171.436523 C537.423827,171.687176 537.228516,171.976886 537.072266,172.305664 C536.916015,172.634442 536.790691,172.97949 536.696289,173.34082 C536.601888,173.70215 536.533529,174.06673 536.491211,174.43457 C536.448893,174.802411 536.424479,175.152342 536.417969,175.484375 L536.417969,177.125 C536.424479,177.457033 536.448893,177.808592 536.491211,178.179688 C536.533529,178.550783 536.603515,178.91699 536.701172,179.27832 C536.798829,179.63965 536.92578,179.986326 537.082031,180.318359 C537.238282,180.650392 537.433593,180.941731 537.667969,181.192383 C537.902345,181.443035 538.179035,181.643228 538.498047,181.792969 C538.817059,181.942709 539.188149,182.017578 539.611328,182.017578 C540.034507,182.017578 540.407225,181.942709 540.729492,181.792969 C541.051759,181.643228 541.328449,181.443035 541.55957,181.192383 C541.790691,180.941731 541.982747,180.65202 542.135742,180.323242 C542.288738,179.994465 542.412434,179.649416 542.506836,179.288086 C542.601237,178.926756 542.666341,178.560549 542.702148,178.189453 C542.737956,177.818358 542.759115,177.463543 542.765625,177.125 L542.765625,175.484375 Z M566.75,179.820312 C566.75,179.384112 566.650717,179.016278 566.452148,178.716797 C566.25358,178.417316 565.998048,178.16504 565.685547,177.959961 C565.373045,177.754882 565.029624,177.583985 564.655273,177.447266 C564.280923,177.310546 563.921226,177.18685 563.576172,177.076172 C563.074867,176.913411 562.565432,176.7181 562.047852,176.490234 C561.530271,176.262369 561.05827,175.982424 560.631836,175.650391 C560.205402,175.318358 559.857098,174.926109 559.586914,174.473633 C559.31673,174.021157 559.181641,173.488935 559.181641,172.876953 C559.181641,172.264971 559.31673,171.718101 559.586914,171.236328 C559.857098,170.754555 560.210284,170.347658 560.646484,170.015625 C561.082684,169.683592 561.577471,169.431316 562.130859,169.258789 C562.684248,169.086262 563.240883,169 563.800781,169 C564.419274,169 565.014971,169.102538 565.587891,169.307617 C566.16081,169.512696 566.668618,169.800779 567.111328,170.171875 C567.554039,170.542971 567.908853,170.992185 568.175781,171.519531 C568.44271,172.046878 568.582682,172.636064 568.595703,173.287109 L566.740234,173.287109 C566.688151,172.876951 566.58724,172.504233 566.4375,172.168945 C566.28776,171.833657 566.089194,171.545574 565.841797,171.304688 C565.5944,171.063801 565.299806,170.876628 564.958008,170.743164 C564.616209,170.6097 564.230471,170.542969 563.800781,170.542969 C563.455727,170.542969 563.118817,170.591796 562.790039,170.689453 C562.461261,170.78711 562.168296,170.933593 561.911133,171.128906 C561.65397,171.32422 561.448894,171.565103 561.295898,171.851562 C561.142903,172.138022 561.066406,172.47005 561.066406,172.847656 C561.072917,173.257815 561.177082,173.604491 561.378906,173.887695 C561.58073,174.1709 561.836261,174.410155 562.145508,174.605469 C562.454754,174.800782 562.790037,174.963541 563.151367,175.09375 C563.512697,175.223959 563.852863,175.33789 564.171875,175.435547 C564.523439,175.546225 564.878253,175.671549 565.236328,175.811523 C565.594403,175.951498 565.939451,176.112629 566.271484,176.294922 C566.603517,176.477214 566.912759,176.682291 567.199219,176.910156 C567.485679,177.138022 567.736327,177.396808 567.951172,177.686523 C568.166017,177.976238 568.333658,178.295246 568.454102,178.643555 C568.574545,178.991864 568.634766,179.377602 568.634766,179.800781 C568.634766,180.438805 568.493165,180.99544 568.209961,181.470703 C567.926756,181.945966 567.560549,182.34147 567.111328,182.657227 C566.662107,182.972983 566.1543,183.210611 565.587891,183.370117 C565.021482,183.529623 564.455081,183.609375 563.888672,183.609375 C563.257158,183.609375 562.638675,183.51172 562.033203,183.316406 C561.427731,183.121093 560.885745,182.83952 560.407227,182.47168 C559.928709,182.103839 559.539715,181.654625 559.240234,181.124023 C558.940754,180.593422 558.78125,179.989587 558.761719,179.3125 L560.607422,179.3125 C560.666016,179.755211 560.786457,180.147459 560.96875,180.489258 C561.151043,180.831056 561.385415,181.120767 561.671875,181.358398 C561.958335,181.59603 562.288735,181.775065 562.663086,181.895508 C563.037437,182.015951 563.445961,182.076172 563.888672,182.076172 C564.240236,182.076172 564.586912,182.032227 564.928711,181.944336 C565.27051,181.856445 565.574868,181.719727 565.841797,181.53418 C566.108725,181.348632 566.326822,181.114259 566.496094,180.831055 C566.665365,180.54785 566.75,180.210939 566.75,179.820312 Z M571.310547,169.195312 L579.904297,169.195312 L579.904297,170.767578 L576.496094,170.767578 L576.496094,181.851562 L579.904297,181.851562 L579.904297,183.414062 L571.310547,183.414062 L571.310547,181.851562 L574.640625,181.851562 L574.640625,170.767578 L571.310547,170.767578 L571.310547,169.195312 Z M592.511719,181.548828 C591.912757,182.251957 591.225915,182.772785 590.451172,183.111328 C589.676428,183.449871 588.826828,183.615885 587.902344,183.609375 C587.316403,183.602865 586.777672,183.513347 586.286133,183.34082 C585.794594,183.168293 585.353518,182.930666 584.962891,182.62793 C584.572264,182.325194 584.23047,181.968752 583.9375,181.558594 C583.64453,181.148435 583.398764,180.704104 583.200195,180.225586 C583.001627,179.747068 582.851889,179.245771 582.750977,178.72168 C582.650065,178.197589 582.596354,177.668622 582.589844,177.134766 L582.589844,175.484375 C582.596354,174.957029 582.643554,174.431318 582.731445,173.907227 C582.819336,173.383135 582.954426,172.880211 583.136719,172.398438 C583.319011,171.916664 583.546874,171.469078 583.820312,171.055664 C584.093751,170.642251 584.420897,170.284181 584.801758,169.981445 C585.182619,169.678709 585.61393,169.439454 586.095703,169.263672 C586.577476,169.08789 587.117836,169 587.716797,169 C588.380863,169 588.992836,169.102538 589.552734,169.307617 C590.112633,169.512696 590.600909,169.805662 591.017578,170.186523 C591.434247,170.567385 591.76953,171.026365 592.023438,171.563477 C592.277345,172.100589 592.433593,172.701169 592.492188,173.365234 L590.705078,173.365234 C590.633463,172.955076 590.522787,172.575848 590.373047,172.227539 C590.223307,171.87923 590.026368,171.581381 589.782227,171.333984 C589.538085,171.086587 589.246746,170.892904 588.908203,170.75293 C588.56966,170.612955 588.175783,170.542969 587.726562,170.542969 C587.296873,170.542969 586.916017,170.61621 586.583984,170.762695 C586.251951,170.90918 585.962241,171.106119 585.714844,171.353516 C585.467447,171.600913 585.262371,171.888996 585.099609,172.217773 C584.936848,172.546551 584.803386,172.893227 584.699219,173.257812 C584.595052,173.622398 584.520183,173.993488 584.474609,174.371094 C584.429036,174.7487 584.40625,175.113279 584.40625,175.464844 L584.40625,177.134766 C584.41276,177.49284 584.443685,177.862303 584.499023,178.243164 C584.554362,178.624025 584.640624,178.996743 584.757812,179.361328 C584.875001,179.725913 585.024739,180.070962 585.207031,180.396484 C585.389324,180.722007 585.609048,181.008462 585.866211,181.255859 C586.123374,181.503256 586.421222,181.700195 586.759766,181.84668 C587.098309,181.993165 587.48242,182.069661 587.912109,182.076172 C588.159506,182.082682 588.418293,182.072917 588.688477,182.046875 C588.95866,182.020833 589.220702,181.96875 589.474609,181.890625 C589.728517,181.8125 589.966145,181.706706 590.1875,181.573242 C590.408855,181.439778 590.5944,181.265626 590.744141,181.050781 L590.763672,177.857422 L587.873047,177.857422 L587.873047,176.333984 L592.482422,176.333984 L592.511719,181.548828 Z M604.220703,183.414062 L602.384766,183.414062 L596.867188,172.789062 L596.837891,183.414062 L595.011719,183.414062 L595.011719,169.195312 L596.847656,169.195312 L602.365234,179.800781 L602.394531,169.195312 L604.220703,169.195312 L604.220703,183.414062 Z M614.103516,179.732422 L609.357422,179.732422 L608.214844,183.414062 L606.408203,183.414062 L610.998047,169.195312 L612.511719,169.195312 L617.023438,183.414062 L615.226562,183.414062 L614.103516,179.732422 Z M609.845703,178.160156 L613.625,178.160156 L611.75,171.988281 L609.845703,178.160156 Z M621.359375,181.880859 L628.3125,181.880859 L628.3125,183.414062 L619.552734,183.414062 L619.552734,169.195312 L621.359375,169.195312 L621.359375,181.880859 Z" id="path-1"></path>
        <path d="M413.116484,443.427734 L407.178984,443.427734 L407.178984,448.466797 L414.102813,448.466797 L414.102813,450 L405.372344,450 L405.372344,435.78125 L414.014922,435.78125 L414.014922,437.324219 L407.178984,437.324219 L407.178984,441.894531 L413.116484,441.894531 L413.116484,443.427734 Z M422.003203,444.199219 L419.161406,444.199219 L419.161406,450 L417.364531,450 L417.364531,435.78125 L421.534453,435.78125 C422.198519,435.794271 422.823513,435.888671 423.409453,436.064453 C423.995394,436.240235 424.508084,436.503904 424.947539,436.855469 C425.386994,437.207033 425.732043,437.648109 425.982695,438.178711 C426.233348,438.709313 426.358672,439.332679 426.358672,440.048828 C426.358672,440.51107 426.291941,440.934243 426.158477,441.318359 C426.025012,441.702476 425.841095,442.05078 425.606719,442.363281 C425.372343,442.675783 425.092397,442.952473 424.766875,443.193359 C424.441353,443.434246 424.083283,443.639322 423.692656,443.808594 L426.710234,449.882812 L426.700469,450 L424.796172,450 L422.003203,444.199219 Z M419.161406,442.714844 L421.583281,442.714844 C421.986929,442.708333 422.367785,442.644857 422.725859,442.524414 C423.083934,442.403971 423.398059,442.229819 423.668242,442.001953 C423.938426,441.774087 424.15164,441.49577 424.307891,441.166992 C424.464141,440.838215 424.542266,440.458987 424.542266,440.029297 C424.542266,439.573565 424.467397,439.174806 424.317656,438.833008 C424.167916,438.491209 423.959585,438.204754 423.692656,437.973633 C423.425728,437.742512 423.108348,437.56836 422.740508,437.451172 C422.372667,437.333984 421.970653,437.272135 421.534453,437.265625 L419.161406,437.265625 L419.161406,442.714844 Z M434.005156,444.199219 L431.163359,444.199219 L431.163359,450 L429.366484,450 L429.366484,435.78125 L433.536406,435.78125 C434.200472,435.794271 434.825466,435.888671 435.411406,436.064453 C435.997347,436.240235 436.510037,436.503904 436.949492,436.855469 C437.388948,437.207033 437.733996,437.648109 437.984648,438.178711 C438.235301,438.709313 438.360625,439.332679 438.360625,440.048828 C438.360625,440.51107 438.293894,440.934243 438.16043,441.318359 C438.026965,441.702476 437.843048,442.05078 437.608672,442.363281 C437.374296,442.675783 437.094351,442.952473 436.768828,443.193359 C436.443306,443.434246 436.085236,443.639322 435.694609,443.808594 L438.712188,449.882812 L438.702422,450 L436.798125,450 L434.005156,444.199219 Z M431.163359,442.714844 L433.585234,442.714844 C433.988882,442.708333 434.369738,442.644857 434.727813,442.524414 C435.085887,442.403971 435.400012,442.229819 435.670195,442.001953 C435.940379,441.774087 436.153593,441.49577 436.309844,441.166992 C436.466095,440.838215 436.544219,440.458987 436.544219,440.029297 C436.544219,439.573565 436.46935,439.174806 436.319609,438.833008 C436.169869,438.491209 435.961538,438.204754 435.694609,437.973633 C435.427681,437.742512 435.110301,437.56836 434.742461,437.451172 C434.374621,437.333984 433.972606,437.272135 433.536406,437.265625 L431.163359,437.265625 L431.163359,442.714844 Z M450.548125,443.710938 C450.541615,444.218753 450.49767,444.731443 450.416289,445.249023 C450.334908,445.766604 450.209584,446.266274 450.040313,446.748047 C449.871041,447.22982 449.654572,447.679034 449.390898,448.095703 C449.127225,448.512372 448.813101,448.876952 448.448516,449.189453 C448.08393,449.501955 447.66564,449.74772 447.193633,449.926758 C446.721625,450.105795 446.192659,450.195312 445.606719,450.195312 C445.020778,450.195312 444.491812,450.105795 444.019805,449.926758 C443.547797,449.74772 443.129507,449.501955 442.764922,449.189453 C442.400337,448.876952 442.084585,448.510744 441.817656,448.09082 C441.550728,447.670896 441.331003,447.220054 441.158477,446.738281 C440.98595,446.256508 440.85737,445.758466 440.772734,445.244141 C440.688099,444.729815 440.642526,444.218753 440.636016,443.710938 L440.636016,442.089844 C440.642526,441.582029 440.686471,441.069339 440.767852,440.551758 C440.849232,440.034177 440.976184,439.534508 441.148711,439.052734 C441.321238,438.570961 441.539335,438.120119 441.803008,437.700195 C442.066681,437.280271 442.380805,436.912436 442.745391,436.59668 C443.109976,436.280923 443.528266,436.03353 444.000273,435.854492 C444.472281,435.675455 445.001247,435.585938 445.587188,435.585938 C446.173128,435.585938 446.703722,435.675455 447.178984,435.854492 C447.654247,436.03353 448.074165,436.279295 448.43875,436.591797 C448.803335,436.904298 449.11746,437.270506 449.381133,437.69043 C449.644806,438.110354 449.862903,438.561196 450.03543,439.042969 C450.207957,439.524742 450.334908,440.026039 450.416289,440.546875 C450.49767,441.067711 450.541615,441.582029 450.548125,442.089844 L450.548125,443.710938 Z M448.761016,442.070312 C448.754505,441.731769 448.731719,441.378583 448.692656,441.010742 C448.653594,440.642902 448.586862,440.278322 448.492461,439.916992 C448.398059,439.555662 448.272735,439.210614 448.116484,438.881836 C447.960234,438.553058 447.764923,438.263348 447.530547,438.012695 C447.296171,437.762043 447.019481,437.563477 446.700469,437.416992 C446.381457,437.270507 446.010367,437.197266 445.587188,437.197266 C445.170519,437.197266 444.802684,437.272135 444.483672,437.421875 C444.16466,437.571615 443.88797,437.771809 443.653594,438.022461 C443.419218,438.273113 443.223907,438.562824 443.067656,438.891602 C442.911405,439.220379 442.786081,439.565428 442.69168,439.926758 C442.597278,440.288088 442.528919,440.652667 442.486602,441.020508 C442.444284,441.388348 442.41987,441.73828 442.413359,442.070312 L442.413359,443.710938 C442.41987,444.04297 442.444284,444.394529 442.486602,444.765625 C442.528919,445.136721 442.598906,445.502928 442.696563,445.864258 C442.794219,446.225588 442.921171,446.572264 443.077422,446.904297 C443.233673,447.23633 443.428983,447.527668 443.663359,447.77832 C443.897736,448.028973 444.174425,448.229166 444.493438,448.378906 C444.81245,448.528647 445.18354,448.603516 445.606719,448.603516 C446.029898,448.603516 446.402616,448.528647 446.724883,448.378906 C447.04715,448.229166 447.32384,448.028973 447.554961,447.77832 C447.786082,447.527668 447.978137,447.237957 448.131133,446.90918 C448.284128,446.580402 448.407825,446.235353 448.502227,445.874023 C448.596628,445.512694 448.661732,445.146486 448.697539,444.775391 C448.733347,444.404295 448.754505,444.049481 448.761016,443.710938 L448.761016,442.070312 Z M458.009063,444.199219 L455.167266,444.199219 L455.167266,450 L453.370391,450 L453.370391,435.78125 L457.540313,435.78125 C458.204378,435.794271 458.829372,435.888671 459.415313,436.064453 C460.001253,436.240235 460.513943,436.503904 460.953398,436.855469 C461.392854,437.207033 461.737902,437.648109 461.988555,438.178711 C462.239207,438.709313 462.364531,439.332679 462.364531,440.048828 C462.364531,440.51107 462.2978,440.934243 462.164336,441.318359 C462.030872,441.702476 461.846954,442.05078 461.612578,442.363281 C461.378202,442.675783 461.098257,442.952473 460.772734,443.193359 C460.447212,443.434246 460.089143,443.639322 459.698516,443.808594 L462.716094,449.882812 L462.706328,450 L460.802031,450 L458.009063,444.199219 Z M455.167266,442.714844 L457.589141,442.714844 C457.992788,442.708333 458.373644,442.644857 458.731719,442.524414 C459.089793,442.403971 459.403918,442.229819 459.674102,442.001953 C459.944285,441.774087 460.157499,441.49577 460.31375,441.166992 C460.470001,440.838215 460.548125,440.458987 460.548125,440.029297 C460.548125,439.573565 460.473256,439.174806 460.323516,438.833008 C460.173775,438.491209 459.965444,438.204754 459.698516,437.973633 C459.431587,437.742512 459.114208,437.56836 458.746367,437.451172 C458.378527,437.333984 457.976513,437.272135 457.540313,437.265625 L455.167266,437.265625 L455.167266,442.714844 Z" id="path-2"></path>
    </defs>
    <g id="error" stroke="none" stroke-width="1" fill="none" fill-rule="evenodd">
        <circle id="Oval" fill="#1D1D1B" cx="517" cy="314" r="220"></circle>
        <polygon id="Path_316" fill="#FFBE07" fill-rule="nonzero" transform="translate(256.500000, 320.000000) rotate(90.000000) translate(-256.500000, -320.000000) " points="250 561 263 561 263 79 250 79"></polygon>
        <rect id="Rectangle_572" fill="#D672AF" fill-rule="nonzero" x="297" y="256" width="137" height="71"></rect>
        <path d="M572,390 L572,435 L700.787845,435 C710.255141,420.943847 717.617432,405.841107 723.531279,390 L572,390 Z" id="Path_452" fill="#FFBE07" fill-rule="nonzero"></path>
        <path d="M572,390 L572,435 L533,435 L533,390 L572,390 Z" id="Combined-Shape" fill="#6AC32D" fill-rule="nonzero"></path>
        <rect id="Rectangle_610" fill="#D672AF" fill-rule="nonzero" x="82" y="589" width="43" height="44"></rect>
        <rect id="Rectangle_573" fill="#E33D49" fill-rule="nonzero" x="432" y="256" width="137" height="71"></rect>
        <rect id="Rectangle_611" fill="#E33D49" fill-rule="nonzero" x="124" y="564" width="142" height="25"></rect>
        <g id="Group_630" transform="translate(569.000000, 256.000000)" fill="#29408D" fill-rule="nonzero">
            <rect id="Rectangle_574" x="0" y="0" width="78.303" height="70.3324028"></rect>
        </g>
        <g id="Group_636" transform="translate(867.000000, 481.000000)" fill="#29408D" fill-rule="nonzero">
            <rect id="Rectangle_574-2" x="0" y="0" width="29.558" height="64.484"></rect>
        </g>
        <rect id="Rectangle_575" fill="#F5F5F5" fill-rule="nonzero" x="468" y="145" width="216" height="62"></rect>
        <g id="Group_631" transform="translate(282.000000, 207.000000)" fill-rule="nonzero">
            <rect id="Rectangle_576" fill="#CCCCCC" x="440.781" y="0" width="19.095" height="48.822"></rect>
            <rect id="Rectangle_577" fill="#CCCCCC" x="402.452" y="0" width="19.095" height="48.822"></rect>
            <rect id="Rectangle_578" fill="#CCCCCC" x="594.096" y="0" width="19.095" height="48.822"></rect>
            <rect id="Rectangle_579" fill="#CCCCCC" x="517.438" y="0" width="19.095" height="48.822"></rect>
            <rect id="Rectangle_580" fill="#CCCCCC" x="287.466" y="0" width="19.095" height="48.822"></rect>
            <rect id="Rectangle_581" fill="#CCCCCC" x="172.479" y="0" width="19.095" height="48.822"></rect>
            <rect id="Rectangle_582" fill="#CCCCCC" x="555.767" y="0" width="19.095" height="48.822"></rect>
            <rect id="Rectangle_583" fill="#CCCCCC" x="479.11" y="0" width="19.095" height="48.822"></rect>
            <rect id="Rectangle_584" fill="#CCCCCC" x="325.794" y="0" width="19.095" height="48.822"></rect>
            <rect id="Rectangle_585" fill="#CCCCCC" x="210.808" y="0" width="19.095" height="48.822"></rect>
            <rect id="Rectangle_586" fill="#CCCCCC" x="57.494" y="0" width="19.095" height="48.822"></rect>
            <rect id="Rectangle_587" fill="#CCCCCC" x="364.123" y="0" width="19.095" height="48.822"></rect>
            <rect id="Rectangle_588" fill="#CCCCCC" x="249.137" y="0" width="19.095" height="48.822"></rect>
            <rect id="Rectangle_589" fill="#CCCCCC" x="134.151" y="0" width="19.095" height="48.822"></rect>
            <rect id="Rectangle_590" fill="#CCCCCC" x="19.165" y="0" width="19.095" height="48.822"></rect>
            <rect id="Rectangle_591" fill="#CCCCCC" x="95.822" y="0" width="19.095" height="48.822"></rect>
            <rect id="Rectangle_592" fill="#000000" x="574.932" y="0" width="19.095" height="48.822"></rect>
            <rect id="Rectangle_593" fill="#000000" x="536.603" y="0" width="19.095" height="48.822"></rect>
            <rect id="Rectangle_594" fill="#000000" x="421.616" y="0" width="19.095" height="48.822"></rect>
            <rect id="Rectangle_595" fill="#000000" x="306.63" y="0" width="19.095" height="48.822"></rect>
            <rect id="Rectangle_596" fill="#000000" x="613.26" y="0" width="19.095" height="48.822"></rect>
            <rect id="Rectangle_597" fill="#000000" x="459.945" y="0" width="19.095" height="48.822"></rect>
            <rect id="Rectangle_598" fill="#000000" x="344.959" y="0" width="19.095" height="48.822"></rect>
            <rect id="Rectangle_599" fill="#000000" x="191.644" y="0" width="19.095" height="48.822"></rect>
            <rect id="Rectangle_600" fill="#000000" x="76.658" y="0" width="19.095" height="48.822"></rect>
            <rect id="Rectangle_601" fill="#000000" x="498.274" y="0" width="19.095" height="48.822"></rect>
            <rect id="Rectangle_602" fill="#000000" x="383.288" y="0" width="19.095" height="48.822"></rect>
            <rect id="Rectangle_603" fill="#000000" x="268.301" y="0" width="19.095" height="48.822"></rect>
            <rect id="Rectangle_604" fill="#000000" x="153.315" y="0" width="19.095" height="48.822"></rect>
            <rect id="Rectangle_605" fill="#000000" x="0" y="0" width="19.095" height="48.822"></rect>
            <rect id="Rectangle_606" fill="#000000" x="229.973" y="0" width="19.095" height="48.822"></rect>
            <rect id="Rectangle_607" fill="#000000" x="114.987" y="0" width="19.095" height="48.822"></rect>
            <rect id="Rectangle_608" fill="#000000" x="38.329" y="0" width="19.095" height="48.822"></rect>
        </g>
        <g id="Group_637" transform="translate(73.000000, 465.500000) rotate(90.000000) translate(-73.000000, -465.500000) translate(-16.000000, 457.000000)" fill-rule="nonzero">
            <rect id="Rectangle_581-2" fill="#CCCCCC" x="133.353" y="0" width="14.764" height="16.924"></rect>
            <rect id="Rectangle_585-2" fill="#CCCCCC" x="162.987" y="0" width="14.764" height="16.924"></rect>
            <rect id="Rectangle_586-2" fill="#CCCCCC" x="44.451" y="0" width="14.764" height="16.924"></rect>
            <rect id="Rectangle_589-2" fill="#CCCCCC" x="103.719" y="0" width="14.764" height="16.924"></rect>
            <rect id="Rectangle_590-2" fill="#CCCCCC" x="14.817" y="0" width="14.764" height="16.924"></rect>
            <rect id="Rectangle_591-2" fill="#CCCCCC" x="74.085" y="0" width="14.764" height="16.924"></rect>
            <rect id="Rectangle_599-2" fill="#000000" x="148.17" y="0" width="14.764" height="16.924"></rect>
            <rect id="Rectangle_600-2" fill="#000000" x="59.268" y="0" width="14.764" height="16.924"></rect>
            <rect id="Rectangle_604-2" fill="#000000" x="118.537" y="0" width="14.764" height="16.924"></rect>
            <rect id="Rectangle_605-2" fill="#000000" x="0" y="0" width="14.764" height="16.924"></rect>
            <rect id="Rectangle_607-2" fill="#000000" x="88.902" y="0" width="14.764" height="16.924"></rect>
            <rect id="Rectangle_608-2" fill="#000000" x="29.634" y="0" width="14.764" height="16.924"></rect>
        </g>
        <path d="M579.892,360.881 L622.799,360.881 L622.799,324.028 L623.799,324.028 L623.799,360.881 L665.095,360.881 L665.095,324.01 L666.095,324.01 L666.095,360.881 L707.316,360.881 L707.316,324.028 L708.316,324.028 L708.316,360.881 L749.611,360.881 L749.611,324.028 L750.611,324.028 L750.611,360.881 L799.277,360.881 L799.277,361.881 L750.611,361.881 L750.611,398.733 L749.611,398.733 L749.611,361.881 L708.316,361.881 L708.316,398.733 L707.316,398.733 L707.316,361.881 L666.095,361.881 L666.095,398.715 L665.095,398.715 L665.095,361.881 L623.799,361.881 L623.799,398.733 L622.799,398.733 L622.799,361.881 L579.892,361.881 L579.892,398.715 L578.892,398.715 L578.892,361.881 L538.286,361.881 L538.286,398.715 L537.286,398.715 L537.286,361.881 L517.138,361.881 L517.138,432.761 L516.138,432.761 L516.138,361.881 L496.066,361.881 L496.066,398.715 L495.066,398.715 L495.066,361.881 L453.693,361.881 L453.693,398.733 L452.693,398.733 L452.693,361.881 L411.398,361.881 L411.398,398.733 L410.398,398.733 L410.398,361.881 L369.177,361.881 L369.177,398.715 L368.177,398.715 L368.177,361.881 L326.881,361.881 L326.881,388.733 L325.881,388.733 L325.881,361.881 L282.974,361.881 L282.974,388.715 L281.974,388.715 L281.974,361.881 L234,361.881 L234,360.881 L281.974,360.881 L281.974,314.01 L282.974,314.01 L282.974,360.881 L325.881,360.881 L325.881,314.028 L326.881,314.028 L326.881,360.881 L368.177,360.881 L368.177,324.01 L369.177,324.01 L369.177,360.881 L410.398,360.881 L410.398,324.028 L411.398,324.028 L411.398,360.881 L452.693,360.881 L452.693,324.028 L453.693,324.028 L453.693,360.881 L495.066,360.881 L495.066,324.01 L496.066,324.01 L496.066,360.881 L516.138,360.881 L516.138,290 L517.138,290 L517.138,360.881 L537.286,360.881 L537.286,324.01 L538.286,324.01 L538.286,360.881 L578.892,360.881 L578.892,324.01 L579.892,324.01 L579.892,360.881 Z" id="Combined-Shape" fill="#EAE9E8" fill-rule="nonzero"></path>
        <path d="M439.25,523.851 L438.75,523.851 L438.75,466 L439.25,466 L439.25,523.851 Z M445.622,523.851 L445.122,523.851 L445.122,466 L445.622,466 L445.622,523.851 Z M464.736,523.851 L464.236,523.851 L464.236,466 L464.736,466 L464.736,523.851 Z M471.107,523.851 L470.607,523.851 L470.607,466 L471.107,466 L471.107,523.851 Z M502.965,523.851 L502.465,523.851 L502.465,466 L502.965,466 L502.965,523.851 Z M509.336,523.851 L508.836,523.851 L508.836,466 L509.336,466 L509.336,523.851 Z M451.993,523.851 L451.493,523.851 L451.493,466 L451.993,466 L451.993,523.851 Z M458.364,523.851 L457.864,523.851 L457.864,466 L458.364,466 L458.364,523.851 Z M477.479,523.851 L476.979,523.851 L476.979,466 L477.479,466 L477.479,523.851 Z M490.222,523.851 L489.722,523.851 L489.722,466 L490.222,466 L490.222,523.851 Z M528.45,523.851 L527.95,523.851 L527.95,466 L528.45,466 L528.45,523.851 Z M547.565,523.851 L547.065,523.851 L547.065,466 L547.565,466 L547.565,523.851 Z M483.85,523.851 L483.35,523.851 L483.35,466 L483.85,466 L483.85,523.851 Z M496.593,523.851 L496.093,523.851 L496.093,466 L496.593,466 L496.593,523.851 Z M522.079,523.851 L521.579,523.851 L521.579,466 L522.079,466 L522.079,523.851 Z M541.193,523.851 L540.693,523.851 L540.693,466 L541.193,466 L541.193,523.851 Z M566.679,523.851 L566.179,523.851 L566.179,466 L566.679,466 L566.679,523.851 Z M585.793,523.851 L585.293,523.851 L585.293,466 L585.793,466 L585.793,523.851 Z M515.708,523.851 L515.208,523.851 L515.208,466 L515.708,466 L515.708,523.851 Z M534.822,523.851 L534.322,523.851 L534.322,466 L534.822,466 L534.822,523.851 Z M553.936,523.851 L553.436,523.851 L553.436,466 L553.936,466 L553.936,523.851 Z M573.051,523.851 L572.551,523.851 L572.551,466 L573.051,466 L573.051,523.851 Z M598.536,523.851 L598.036,523.851 L598.036,466 L598.536,466 L598.536,523.851 Z M617.651,523.851 L617.151,523.851 L617.151,466 L617.651,466 L617.651,523.851 Z M560.308,523.851 L559.808,523.851 L559.808,466 L560.308,466 L560.308,523.851 Z M579.422,523.851 L578.922,523.851 L578.922,466 L579.422,466 L579.422,523.851 Z M592.165,523.851 L591.665,523.851 L591.665,466 L592.165,466 L592.165,523.851 Z M611.279,523.851 L610.779,523.851 L610.779,466 L611.279,466 L611.279,523.851 Z M636.765,523.851 L636.265,523.851 L636.265,466 L636.765,466 L636.765,523.851 Z M655.88,523.851 L655.38,523.851 L655.38,466 L655.88,466 L655.88,523.851 Z M604.908,523.851 L604.408,523.851 L604.408,466 L604.908,466 L604.908,523.851 Z M624.022,523.851 L623.522,523.851 L623.522,466 L624.022,466 L624.022,523.851 Z M630.394,523.851 L629.894,523.851 L629.894,466 L630.394,466 L630.394,523.851 Z M649.508,523.851 L649.008,523.851 L649.008,466 L649.508,466 L649.508,523.851 Z M668.622,523.851 L668.122,523.851 L668.122,466 L668.622,466 L668.622,523.851 Z M681.365,523.851 L680.865,523.851 L680.865,466 L681.365,466 L681.365,523.851 Z M643.137,523.851 L642.637,523.851 L642.637,466 L643.137,466 L643.137,523.851 Z M662.251,523.851 L661.751,523.851 L661.751,466 L662.251,466 L662.251,523.851 Z M674.994,523.851 L674.494,523.851 L674.494,466 L674.994,466 L674.994,523.851 Z M687.737,523.851 L687.237,523.851 L687.237,466 L687.737,466 L687.737,523.851 Z M694.108,523.851 L693.608,523.851 L693.608,466 L694.108,466 L694.108,523.851 Z M700.48,523.851 L699.98,523.851 L699.98,466 L700.48,466 L700.48,523.851 Z" id="Combined-Shape" fill="#B3B3B3" fill-rule="nonzero"></path>
        <g id="NOSIGNAL" fill-rule="nonzero" fill="#000000">
            <use xlink:href="#path-1"></use>
            <use xlink:href="#path-1"></use>
        </g>
        <g id="ERROR" fill-rule="nonzero">
            <use fill="#000000" xlink:href="#path-2"></use>
            <use fill="#FFFFFF" xlink:href="#path-2"></use>
        </g>
        <path d="M465.927,99.831 L465.927,145.555 L465.494,145.555 L465.494,145.647 L659.086,145.647 C619.160595,112.212089 568.725151,93.9244295 516.649,93.9997667 C499.574137,93.9945161 482.555189,95.951014 465.927,99.831 Z" id="Path_453" fill="#999999" fill-rule="nonzero"></path>
        <path d="M467.554,99.494 C433.646623,107.500664 402.07313,123.302989 375.341,145.646 L467.554,145.646 L467.554,99.494 Z" id="Path_454" fill="#808080" fill-rule="nonzero"></path>
    </g>
</svg>