<?xml version="1.0" encoding="UTF-8"?>
<svg viewBox="0 0 201 71" >
    <g id="Page-1" stroke="none" stroke-width="1" fill="none" fill-rule="evenodd">
        <g id="tv-kitchen-logo" fill-rule="nonzero">
            <rect id="Rectangle" fill="#EAE9E8" x="20.192" y="1.52" width="25.928" height="9.906"></rect>
            <polygon id="Path" fill="#FFBE07" points="45.866 1.52 71.794 1.52 71.794 11.426 45.866 11.426"></polygon>
            <polygon id="Path" fill="#6CD5D5" points="71.031 1.52 96.959 1.52 96.959 11.426 71.031 11.426"></polygon>
            <rect id="Rectangle" fill="#6AC32D" x="96.705" y="1.52" width="25.928" height="9.906"></rect>
            <polygon id="Path" fill="#D672AF" points="122.125 1.52 148.053 1.52 148.053 11.426 122.125 11.426"></polygon>
            <polygon id="Path" fill="#E51515" points="147.798 1.52 173.726 1.52 173.726 11.426 147.798 11.426"></polygon>
            <rect id="Rectangle" fill="#193EB7" x="172.964" y="1.52" width="25.928" height="9.906"></rect>
            <path d="M200.316,12.979 L18.726,12.979 L18.726,0 L200.316,0 L200.316,12.979 Z M21.798,9.907 L197.243,9.907 L197.243,3.074 L21.798,3.074 L21.798,9.907 Z" id="Shape" fill="#000000"></path>
            <rect id="Rectangle" fill="#FFFFFF" x="1.536" y="11.539" width="197.232" height="57.61"></rect>
            <path d="M200.305,70.685 L0.005,70.685 L0.005,10.001 L200.305,10.001 L200.305,70.685 Z M3.073,67.613 L197.232,67.613 L197.232,13.074 L3.073,13.074 L3.073,67.613 Z" id="Shape" fill="#000000"></path>
            <polygon id="Path" fill="#000000" points="20.716 35.319 15.308 35.319 15.308 32.106 29.798 32.106 29.798 35.319 24.39 35.319 24.39 48.839 20.715 48.839"></polygon>
            <path d="M33.312,32.106 L37.264,32.106 L39.945,39.457 C40.5,40.957 41.054,42.507 41.562,44.011 L41.608,44.011 C42.14,42.484 42.694,40.982 43.272,39.434 L46.022,32.106 L49.789,32.106 L43.411,48.839 L39.711,48.839 L33.312,32.106 Z" id="Path" fill="#000000"></path>
            <polygon id="Path" fill="#000000" points="63.193 32.106 66.868 32.106 66.868 39.506 66.914 39.527 72.761 32.108 77.129 32.108 70.797 39.873 77.661 48.841 73.131 48.841 66.914 40.477 66.868 40.498 66.868 48.841 63.193 48.841"></polygon>
            <polygon id="Path" fill="#000000" points="82.004 32.106 85.679 32.106 85.679 48.839 82.004 48.839"></polygon>
            <polygon id="Path" fill="#000000" points="96.198 35.319 90.79 35.319 90.79 32.106 105.28 32.106 105.28 35.319 99.872 35.319 99.872 48.839 96.198 48.839"></polygon>
            <path d="M123.256,47.985 C121.733229,48.736513 120.053959,49.1162336 118.356,49.093 C112.971,49.093 109.25,45.371 109.25,40.493 C109.25,35.639 112.971,31.8479276 118.356,31.8479276 C119.962828,31.8420913 121.550384,32.1978817 123.001,32.889 L123.001,36.61 C121.634424,35.6861043 120.028372,35.1801734 118.379,35.154 C116.938514,35.0767114 115.531086,35.6038384 114.495784,36.6083892 C113.460481,37.61294 112.891168,39.0038388 112.925,40.446 C112.893877,41.9160424 113.481825,43.3315247 114.545314,44.3468984 C115.608803,45.3622721 117.049972,45.8841025 118.517,45.785 C120.21658,45.7593377 121.868493,45.2192757 123.255,44.236 L123.256,47.985 Z" id="Path" fill="#000000"></path>
            <polygon id="Path" fill="#000000" points="128.94 32.106 132.615 32.106 132.615 38.577 139.848 38.577 139.848 32.106 143.522 32.106 143.522 48.839 139.848 48.839 139.848 41.789 132.615 41.789 132.615 48.839 128.94 48.839"></polygon>
            <polygon id="Path" fill="#000000" points="149.808 32.106 160.138 32.106 160.138 35.319 153.482 35.319 153.482 38.6 159.214 38.6 159.214 41.651 153.482 41.651 153.482 45.626 160.392 45.626 160.392 48.838 149.807 48.838"></polygon>
            <path d="M172.686,42.09 C171.6,40.635 170.586,39.227 169.543,37.769 L169.497,37.793 C169.52,39.387 169.543,41.005 169.543,42.623 L169.543,48.839 L166.007,48.839 L166.007,32.106 L169.474,32.106 L174.489,38.856 C175.575,40.311 176.589,41.721 177.632,43.176 L177.679,43.154 C177.656,41.559 177.632,39.943 177.632,38.324 L177.632,32.106 L181.168,32.106 L181.168,48.839 L177.701,48.839 L172.686,42.09 Z" id="Path" fill="#000000"></path>
        </g>
    </g>
</svg>
